<svg width="146" height="48" viewBox="0 0 146 48" fill="none" xmlns="http://www.w3.org/2000/svg">
<path d="M134.373 0.000156H11.6331C11.1857 0.000156 10.7437 0.000156 10.2974 0.002556C9.9239 0.004956 9.55335 0.011928 9.17624 0.017796C8.35697 0.0272782 7.53963 0.0981675 6.73132 0.229848C5.92414 0.364395 5.14225 0.618055 4.41209 0.982248C3.68282 1.34952 3.01646 1.82676 2.4372 2.39664C1.85489 2.96492 1.3695 3.62178 0.999674 4.34195C0.628831 5.06069 0.371686 5.83088 0.237123 6.62593C0.10128 7.41998 0.0281819 8.22318 0.0184842 9.02833C0.00716188 9.39625 0.0059662 9.7654 0 10.1334V37.8705C0.0059662 38.2431 0.00716188 38.604 0.0184842 38.9768C0.0281849 39.7819 0.101283 40.585 0.237123 41.379C0.371315 42.1745 0.628474 42.9452 0.999674 43.6642C1.36933 44.382 1.85479 45.0362 2.4372 45.6014C3.01427 46.1738 3.68105 46.6513 4.41209 47.0158C5.14224 47.381 5.92405 47.6361 6.73132 47.7728C7.53976 47.9034 8.35702 47.9743 9.17624 47.9849C9.55335 47.9931 9.9239 47.9978 10.2974 47.9978C10.7436 48.0002 11.1857 48.0002 11.6331 48.0002H134.373C134.812 48.0002 135.258 48.0002 135.696 47.9978C136.068 47.9978 136.449 47.9931 136.821 47.9849C137.639 47.9749 138.454 47.9039 139.261 47.7728C140.071 47.6352 140.855 47.3801 141.589 47.0158C142.32 46.6511 142.986 46.1736 143.562 45.6014C144.143 45.034 144.63 44.3803 145.004 43.6642C145.372 42.9447 145.627 42.1741 145.759 41.379C145.895 40.5849 145.971 39.7819 145.986 38.9768C145.99 38.604 145.99 38.2431 145.99 37.8705C146 37.4345 146 37.001 146 36.5579V11.4435C146 11.0041 146 10.5681 145.99 10.1334C145.99 9.7654 145.99 9.39625 145.986 9.02828C145.971 8.22306 145.895 7.42004 145.759 6.62588C145.627 5.83129 145.372 5.06116 145.004 4.3419C144.251 2.89839 143.057 1.72339 141.589 0.98214C140.855 0.618837 140.071 0.365244 139.261 0.22974C138.454 0.0974793 137.639 0.0265653 136.821 0.017628C136.449 0.011772 136.068 0.00474 135.696 0.0024C135.258 0 134.812 0.000156 134.373 0.000156Z" fill="black"/>
<path d="M10.3034 46.95C9.93169 46.95 9.56894 46.9453 9.20012 46.9372C8.43608 46.9274 7.67383 46.8619 6.91962 46.7414C6.21635 46.6223 5.53507 46.4007 4.89826 46.084C4.26728 45.7698 3.69178 45.3579 3.1938 44.864C2.68862 44.376 2.26802 43.8099 1.9487 43.1882C1.62585 42.5625 1.40242 41.8919 1.28619 41.1996C1.16067 40.4557 1.09276 39.7036 1.08305 38.9496C1.07531 38.6965 1.06519 37.8539 1.06519 37.8539V10.1332C1.06519 10.1332 1.07597 9.30352 1.08311 9.05976C1.09241 8.30698 1.15993 7.55599 1.28507 6.81328C1.40151 6.1191 1.62511 5.4465 1.94813 4.81876C2.26629 4.19754 2.68455 3.63104 3.18669 3.14122C3.68827 2.64675 4.26561 2.23273 4.89766 1.91425C5.53301 1.59852 6.213 1.37848 6.91484 1.26153C7.67154 1.13981 8.43644 1.074 9.20312 1.06466L10.304 1.05H135.69L136.804 1.06524C137.564 1.07412 138.322 1.13934 139.072 1.26035C139.781 1.37877 140.468 1.60034 141.11 1.91777C142.376 2.55959 143.407 3.575 144.057 4.82169C144.375 5.4451 144.595 6.11221 144.71 6.80039C144.836 7.54919 144.907 8.30609 144.922 9.06504C144.925 9.40488 144.925 9.76992 144.925 10.1332C144.935 10.5832 144.935 11.0115 144.935 11.4434V36.5578C144.935 36.9937 144.935 37.4191 144.925 37.848C144.925 38.2382 144.925 38.5957 144.921 38.9636C144.906 39.7091 144.837 40.4524 144.712 41.1878C144.598 41.8851 144.376 42.561 144.053 43.1918C143.732 43.8067 143.313 44.3679 142.814 44.8547C142.316 45.3512 141.739 45.7655 141.107 46.0817C140.466 46.4009 139.78 46.6233 139.072 46.7414C138.317 46.8626 137.555 46.928 136.791 46.9372C136.434 46.9453 136.059 46.95 135.696 46.95L134.374 46.9524L10.3034 46.95Z" fill="white"/>
<path d="M30.4981 23.8672C30.5117 22.8257 30.793 21.8044 31.3158 20.8985C31.8385 19.9926 32.5858 19.2315 33.488 18.686C32.9148 17.8809 32.1587 17.2183 31.2797 16.7509C30.4007 16.2836 29.4229 16.0242 28.4242 15.9935C26.2936 15.7735 24.2282 17.2474 23.1424 17.2474C22.0357 17.2474 20.3642 16.0153 18.5641 16.0517C17.3998 16.0887 16.2651 16.4217 15.2706 17.0183C14.276 17.6148 13.4555 18.4546 12.8891 19.4558C10.4353 23.6342 12.2656 29.775 14.6161 33.1526C15.7921 34.8064 17.1665 36.6538 18.9649 36.5883C20.7248 36.5165 21.3821 35.4846 23.5063 35.4846C25.6109 35.4846 26.2275 36.5883 28.0624 36.5467C29.9509 36.5165 31.1406 34.8855 32.2754 33.2159C33.1204 32.0375 33.7705 30.735 34.2019 29.3569C33.1048 28.9005 32.1685 28.1366 31.5099 27.1603C30.8513 26.1841 30.4994 25.0388 30.4981 23.8672Z" fill="black"/>
<path d="M27.0324 13.7722C28.0621 12.5565 28.5693 10.9939 28.4465 9.41631C26.8734 9.5788 25.4204 10.3182 24.3768 11.4873C23.8666 12.0584 23.4758 12.7228 23.2269 13.4426C22.9779 14.1623 22.8755 14.9232 22.9257 15.6819C23.7126 15.6899 24.4909 15.5221 25.2023 15.1913C25.9136 14.8605 26.5394 14.3753 27.0324 13.7722Z" fill="black"/>
<path d="M51.6118 32.5676H45.8367L44.4498 36.5953H42.0037L47.4738 21.6937H50.0152L55.4853 36.5953H52.9975L51.6118 32.5676ZM46.4348 30.709H51.0126L48.7559 24.1723H48.6927L46.4348 30.709Z" fill="black"/>
<path d="M67.2988 31.1637C67.2988 34.5399 65.4616 36.709 62.689 36.709C61.9866 36.7451 61.2881 36.586 60.6735 36.2498C60.0588 35.9137 59.5528 35.4141 59.2134 34.8082H59.161V40.1894H56.8936V25.7309H59.0883V27.5379H59.13C59.485 26.9349 59.9995 26.4379 60.6189 26.0997C61.2382 25.7615 61.9392 25.5947 62.6472 25.6172C65.4508 25.6172 67.2988 27.7969 67.2988 31.1637ZM64.9683 31.1637C64.9683 28.9641 63.8125 27.518 62.0491 27.518C60.3167 27.518 59.1514 28.9945 59.1514 31.1637C59.1514 33.3527 60.3167 34.8188 62.0491 34.8188C63.8126 34.8188 64.9683 33.3832 64.9683 31.1637Z" fill="black"/>
<path d="M79.4574 31.1637C79.4574 34.5399 77.6195 36.709 74.8469 36.709C74.1446 36.7451 73.4461 36.586 72.8314 36.2498C72.2168 35.9137 71.7108 35.4141 71.3714 34.8082H71.3189V40.1894H69.0515V25.7309H71.2462V27.5379H71.2879C71.6429 26.9349 72.1575 26.4379 72.7768 26.0997C73.3962 25.7615 74.0972 25.5947 74.8052 25.6172C77.6088 25.6172 79.4574 27.7969 79.4574 31.1637ZM77.1263 31.1637C77.1263 28.9641 75.9705 27.518 74.2071 27.518C72.4747 27.518 71.3094 28.9945 71.3094 31.1637C71.3094 33.3527 72.4747 34.8188 74.2071 34.8188C75.9705 34.8188 77.1263 33.3832 77.1263 31.1637Z" fill="black"/>
<path d="M87.4917 32.4434C87.6597 33.9211 89.1193 34.8914 91.1138 34.8914C93.025 34.8914 94.4 33.9211 94.4 32.5886C94.4 31.432 93.5707 30.7394 91.6071 30.2648L89.6436 29.7996C86.8614 29.1386 85.5699 27.8589 85.5699 25.7824C85.5699 23.2113 87.848 21.4453 91.0817 21.4453C94.2844 21.4453 96.4791 23.2113 96.553 25.7824H94.2641C94.1271 24.2953 92.8772 23.3976 91.0507 23.3976C89.2241 23.3976 87.9743 24.3058 87.9743 25.6277C87.9743 26.6812 88.7726 27.3011 90.7254 27.7757L92.3947 28.1788C95.5033 28.9019 96.7937 30.13 96.7937 32.3097C96.7937 35.0976 94.537 36.8437 90.9458 36.8437C87.5858 36.8437 85.3172 35.1386 85.1707 32.4433L87.4917 32.4434Z" fill="black"/>
<path d="M101.689 23.1598V25.7309H103.79V27.4969H101.689V33.4863C101.689 34.4168 102.11 34.8504 103.033 34.8504C103.283 34.8461 103.532 34.8289 103.779 34.7988V36.5543C103.364 36.6306 102.942 36.6651 102.52 36.6574C100.283 36.6574 99.4113 35.8312 99.4113 33.7242V27.4969H97.8052V25.7309H99.4113V23.1598H101.689Z" fill="black"/>
<path d="M105.005 31.1637C105.005 27.7453 107.052 25.5973 110.244 25.5973C113.447 25.5973 115.484 27.7453 115.484 31.1637C115.484 34.5914 113.458 36.7301 110.244 36.7301C107.032 36.7301 105.005 34.5914 105.005 31.1637ZM113.174 31.1637C113.174 28.8188 112.082 27.4348 110.244 27.4348C108.407 27.4348 107.314 28.8293 107.314 31.1637C107.314 33.518 108.407 34.8914 110.244 34.8914C112.082 34.8914 113.174 33.518 113.174 31.1637Z" fill="black"/>
<path d="M117.354 25.7309H119.516V27.5801H119.569C119.715 27.0025 120.059 26.4921 120.543 26.1347C121.027 25.7772 121.621 25.5945 122.226 25.6172C122.487 25.6163 122.748 25.6442 123.003 25.7004V27.7863C122.673 27.6872 122.329 27.6417 121.984 27.6516C121.654 27.6384 121.326 27.6955 121.021 27.819C120.716 27.9425 120.442 28.1293 120.218 28.3668C119.993 28.6043 119.824 28.8867 119.721 29.1947C119.618 29.5027 119.584 29.829 119.621 30.1512V36.5953H117.354L117.354 25.7309Z" fill="black"/>
<path d="M133.457 33.4043C133.152 35.3766 131.199 36.7301 128.7 36.7301C125.487 36.7301 123.492 34.6125 123.492 31.2152C123.492 27.8074 125.498 25.5973 128.605 25.5973C131.661 25.5973 133.583 27.6621 133.583 30.9562V31.7203H125.781V31.8551C125.745 32.2549 125.796 32.6577 125.931 33.0367C126.065 33.4157 126.28 33.7623 126.561 34.0533C126.842 34.3444 127.183 34.5733 127.561 34.7249C127.939 34.8764 128.345 34.9472 128.753 34.9324C129.289 34.9818 129.826 34.8597 130.286 34.5844C130.746 34.3091 131.103 33.8952 131.304 33.4043L133.457 33.4043ZM125.792 30.1617H131.315C131.335 29.8022 131.279 29.4424 131.152 29.105C131.024 28.7675 130.827 28.4597 130.572 28.2008C130.318 27.9418 130.012 27.7374 129.673 27.6004C129.335 27.4633 128.971 27.3966 128.605 27.4043C128.236 27.4021 127.87 27.4719 127.528 27.6096C127.186 27.7473 126.876 27.9502 126.614 28.2065C126.353 28.4629 126.146 28.7677 126.004 29.1032C125.863 29.4388 125.791 29.7986 125.792 30.1617Z" fill="black"/>
<path d="M46.1511 10.4772C46.6265 10.4437 47.1035 10.5143 47.5477 10.684C47.992 10.8537 48.3924 11.1183 48.7201 11.4586C49.0478 11.799 49.2946 12.2066 49.4427 12.6522C49.5908 13.0977 49.6366 13.57 49.5766 14.035C49.5766 16.3225 48.3196 17.6374 46.1511 17.6374H43.5215V10.4772H46.1511ZM44.6522 16.6248H46.0248C46.3645 16.6448 46.7044 16.59 47.0198 16.4645C47.3353 16.3389 47.6183 16.1458 47.8483 15.8991C48.0782 15.6524 48.2494 15.3584 48.3493 15.0385C48.4491 14.7185 48.4752 14.3807 48.4256 14.0496C48.4716 13.7198 48.4429 13.3841 48.3415 13.0665C48.2401 12.7489 48.0685 12.4573 47.839 12.2126C47.6096 11.9678 47.3279 11.7761 47.0143 11.651C46.7006 11.5259 46.3627 11.4706 46.0248 11.4891H44.6522V16.6248Z" fill="black"/>
<path d="M50.8538 14.9332C50.8193 14.5781 50.8606 14.2198 50.9751 13.8813C51.0896 13.5429 51.2747 13.2316 51.5187 12.9677C51.7626 12.7037 52.06 12.4928 52.3916 12.3484C52.7233 12.2041 53.082 12.1296 53.4447 12.1296C53.8074 12.1296 54.1661 12.2041 54.4978 12.3484C54.8294 12.4928 55.1268 12.7037 55.3707 12.9677C55.6147 13.2316 55.7998 13.5429 55.9143 13.8813C56.0288 14.2198 56.0701 14.5781 56.0356 14.9332C56.0708 15.2887 56.03 15.6475 55.9158 15.9865C55.8016 16.3255 55.6165 16.6373 55.3725 16.9018C55.1285 17.1663 54.831 17.3776 54.4989 17.5223C54.1669 17.6669 53.8078 17.7417 53.4447 17.7417C53.0816 17.7417 52.7225 17.6669 52.3904 17.5223C52.0584 17.3776 51.7609 17.1663 51.5169 16.9018C51.2728 16.6373 51.0878 16.3255 50.9736 15.9865C50.8594 15.6475 50.8186 15.2887 50.8538 14.9332ZM54.9203 14.9332C54.9203 13.7619 54.3854 13.077 53.4465 13.077C52.504 13.077 51.9738 13.7619 51.9738 14.9332C51.9738 16.1139 52.5041 16.7936 53.4465 16.7936C54.3854 16.7936 54.9203 16.1092 54.9203 14.9332Z" fill="black"/>
<path d="M62.9235 17.6373H61.7988L60.6633 13.6576H60.5775L59.4468 17.6373H58.3327L56.8184 12.2338H57.9181L58.9023 16.357H58.9833L60.1128 12.2338H61.153L62.2825 16.357H62.3683L63.3477 12.2338H64.432L62.9235 17.6373Z" fill="black"/>
<path d="M65.7058 12.2338H66.7496V13.0922H66.8306C66.968 12.7839 67.1998 12.5254 67.4937 12.3529C67.7876 12.1803 68.1289 12.1022 68.4701 12.1295C68.7374 12.1097 69.0058 12.1494 69.2554 12.2455C69.5051 12.3416 69.7295 12.4917 69.9121 12.6847C70.0947 12.8777 70.2309 13.1087 70.3104 13.3605C70.39 13.6123 70.4109 13.8784 70.3717 14.1392V17.6372H69.2874V14.407C69.2874 13.5387 68.9038 13.1068 68.1019 13.1068C67.9204 13.0985 67.7392 13.1289 67.5708 13.1959C67.4023 13.2629 67.2506 13.3649 67.126 13.495C67.0014 13.625 66.9069 13.7801 66.8489 13.9494C66.7909 14.1188 66.7708 14.2985 66.7901 14.4762V17.6373H65.7058L65.7058 12.2338Z" fill="black"/>
<path d="M72.0994 10.1244H73.1836V17.6373H72.0994V10.1244Z" fill="black"/>
<path d="M74.6907 14.9332C74.6562 14.5781 74.6975 14.2198 74.812 13.8813C74.9265 13.5428 75.1117 13.2316 75.3557 12.9676C75.5997 12.7036 75.897 12.4927 76.2288 12.3483C76.5605 12.204 76.9192 12.1295 77.2819 12.1295C77.6446 12.1295 78.0033 12.204 78.335 12.3483C78.6667 12.4927 78.9641 12.7036 79.2081 12.9676C79.452 13.2316 79.6372 13.5428 79.7517 13.8813C79.8662 14.2198 79.9076 14.5781 79.8731 14.9332C79.9082 15.2887 79.8674 15.6475 79.7531 15.9865C79.6389 16.3255 79.4538 16.6373 79.2098 16.9018C78.9658 17.1663 78.6682 17.3776 78.3362 17.5223C78.0041 17.6669 77.645 17.7416 77.2819 17.7416C76.9187 17.7416 76.5596 17.6669 76.2276 17.5223C75.8956 17.3776 75.598 17.1663 75.354 16.9018C75.1099 16.6373 74.9248 16.3255 74.8106 15.9865C74.6964 15.6475 74.6555 15.2887 74.6907 14.9332ZM78.7572 14.9332C78.7572 13.7619 78.2222 13.077 77.2834 13.077C76.3409 13.077 75.8107 13.7619 75.8107 14.9332C75.8107 16.1139 76.3409 16.7936 77.2834 16.7936C78.2223 16.7936 78.7572 16.1092 78.7572 14.9332Z" fill="black"/>
<path d="M81.0146 16.1092C81.0146 15.1365 81.751 14.5758 83.058 14.4961L84.5462 14.4117V13.9453C84.5462 13.3746 84.1626 13.0524 83.4215 13.0524C82.8162 13.0524 82.3968 13.2709 82.2764 13.6529H81.2267C81.3375 12.7248 82.2252 12.1295 83.4715 12.1295C84.8489 12.1295 85.6257 12.8039 85.6257 13.9453V17.6373H84.582V16.8779H84.4962C84.322 17.1503 84.0775 17.3724 83.7876 17.5214C83.4977 17.6705 83.1728 17.7412 82.846 17.7263C82.6153 17.7499 82.3822 17.7257 82.1617 17.6553C81.9411 17.5849 81.738 17.4698 81.5655 17.3174C81.393 17.165 81.2548 16.9788 81.1599 16.7707C81.065 16.5626 81.0156 16.3373 81.0146 16.1092ZM84.5462 15.6475V15.1957L83.2046 15.2801C82.448 15.3299 82.1048 15.583 82.1048 16.0594C82.1048 16.5457 82.5338 16.8287 83.1236 16.8287C83.2964 16.8459 83.471 16.8288 83.6369 16.7782C83.8029 16.7277 83.9568 16.6449 84.0895 16.5347C84.2222 16.4245 84.3311 16.2892 84.4095 16.1367C84.488 15.9843 84.5345 15.8179 84.5462 15.6475Z" fill="black"/>
<path d="M87.0505 14.9332C87.0505 13.2258 87.943 12.1441 89.331 12.1441C89.6744 12.1286 90.0152 12.2095 90.3135 12.3773C90.6118 12.5452 90.8554 12.7931 91.0158 13.0921H91.0968V10.1244H92.1811V17.6373H91.1421V16.7836H91.0563C90.8836 17.0806 90.6315 17.3254 90.3274 17.4916C90.0232 17.6578 89.6787 17.7389 89.3311 17.7263C87.9334 17.7264 87.0505 16.6447 87.0505 14.9332ZM88.1706 14.9332C88.1706 16.0793 88.7199 16.769 89.6385 16.769C90.5523 16.769 91.1171 16.0694 91.1171 14.9379C91.1171 13.8117 90.5464 13.1022 89.6385 13.1022C88.7258 13.1022 88.1706 13.7965 88.1706 14.9332Z" fill="black"/>
<path d="M96.667 14.9332C96.6325 14.5781 96.6738 14.2198 96.7883 13.8813C96.9028 13.5429 97.0879 13.2316 97.3319 12.9677C97.5758 12.7037 97.8732 12.4928 98.2049 12.3484C98.5365 12.2041 98.8952 12.1296 99.2579 12.1296C99.6206 12.1296 99.9793 12.2041 100.311 12.3484C100.643 12.4928 100.94 12.7037 101.184 12.9677C101.428 13.2316 101.613 13.5429 101.728 13.8813C101.842 14.2198 101.883 14.5781 101.849 14.9332C101.884 15.2887 101.843 15.6475 101.729 15.9865C101.615 16.3255 101.43 16.6373 101.186 16.9018C100.942 17.1663 100.644 17.3776 100.312 17.5223C99.9802 17.6669 99.6211 17.7417 99.2579 17.7417C98.8948 17.7417 98.5357 17.6669 98.2037 17.5223C97.8717 17.3776 97.5741 17.1663 97.3301 16.9018C97.0861 16.6373 96.901 16.3255 96.7868 15.9865C96.6727 15.6475 96.6318 15.2887 96.667 14.9332ZM100.734 14.9332C100.734 13.7619 100.199 13.077 99.2597 13.077C98.3173 13.077 97.7871 13.7619 97.7871 14.9332C97.7871 16.1139 98.3173 16.7936 99.2597 16.7936C100.199 16.7936 100.734 16.1092 100.734 14.9332Z" fill="black"/>
<path d="M103.304 12.2338H104.347V13.0922H104.428C104.566 12.7839 104.798 12.5254 105.092 12.3529C105.386 12.1803 105.727 12.1022 106.068 12.1295C106.335 12.1097 106.604 12.1494 106.853 12.2455C107.103 12.3416 107.327 12.4917 107.51 12.6847C107.693 12.8777 107.829 13.1087 107.908 13.3605C107.988 13.6123 108.009 13.8784 107.97 14.1392V17.6372H106.885V14.407C106.885 13.5387 106.502 13.1068 105.7 13.1068C105.518 13.0985 105.337 13.1289 105.169 13.1959C105 13.2629 104.849 13.3649 104.724 13.495C104.599 13.625 104.505 13.7801 104.447 13.9494C104.389 14.1188 104.369 14.2985 104.388 14.4762V17.6373H103.304V12.2338Z" fill="black"/>
<path d="M114.096 10.8885V12.2584H115.287V13.1566H114.096V15.9352C114.096 16.5012 114.333 16.749 114.873 16.749C115.011 16.7486 115.149 16.7404 115.287 16.7244V17.6127C115.092 17.647 114.895 17.6652 114.697 17.6672C113.491 17.6672 113.011 17.25 113.011 16.2082V13.1566H112.139V12.2584H113.011V10.8885H114.096Z" fill="black"/>
<path d="M116.768 10.1244H117.842V13.1021H117.928C118.072 12.791 118.31 12.5311 118.61 12.3578C118.91 12.1846 119.257 12.1065 119.603 12.1342C119.869 12.1199 120.135 12.1636 120.382 12.2621C120.629 12.3605 120.85 12.5113 121.031 12.7037C121.212 12.8961 121.347 13.1254 121.427 13.3752C121.508 13.6249 121.531 13.889 121.495 14.1486V17.6373H120.41V14.4117C120.41 13.5486 120.001 13.1115 119.235 13.1115C119.049 13.0965 118.861 13.1217 118.686 13.1853C118.511 13.249 118.351 13.3496 118.22 13.4801C118.088 13.6106 117.987 13.7678 117.923 13.9408C117.86 14.1137 117.835 14.2982 117.852 14.4814V17.6373H116.768L116.768 10.1244Z" fill="black"/>
<path d="M127.817 16.1783C127.67 16.6722 127.351 17.0993 126.916 17.3851C126.481 17.6709 125.957 17.7971 125.437 17.7416C125.075 17.751 124.715 17.6828 124.383 17.5418C124.05 17.4007 123.753 17.1902 123.511 16.9249C123.27 16.6595 123.09 16.3456 122.984 16.005C122.879 15.6645 122.849 15.3053 122.899 14.9525C122.851 14.5987 122.88 14.2388 122.986 13.8972C123.091 13.5555 123.27 13.2402 123.511 12.9725C123.751 12.7048 124.047 12.491 124.378 12.3456C124.71 12.2001 125.069 12.1264 125.432 12.1295C126.961 12.1295 127.883 13.1567 127.883 14.8535V15.2256H124.003V15.2854C123.986 15.4837 124.012 15.6833 124.078 15.8714C124.144 16.0595 124.249 16.2319 124.387 16.3776C124.525 16.5234 124.692 16.6392 124.878 16.7177C125.064 16.7962 125.264 16.8356 125.467 16.8334C125.726 16.864 125.989 16.8181 126.221 16.7014C126.454 16.5848 126.646 16.4027 126.774 16.1783L127.817 16.1783ZM124.003 14.4369H126.778C126.792 14.2556 126.767 14.0734 126.705 13.9021C126.643 13.7309 126.545 13.5743 126.417 13.4425C126.29 13.3106 126.136 13.2065 125.965 13.1367C125.795 13.0669 125.611 13.0329 125.426 13.0371C125.238 13.0348 125.052 13.0694 124.879 13.139C124.705 13.2085 124.547 13.3115 124.415 13.442C124.282 13.5724 124.177 13.7277 124.107 13.8986C124.036 14.0694 124.001 14.2525 124.003 14.4369Z" fill="black"/>
</svg>
