<svg width="27" height="27" viewBox="0 0 27 27" fill="none" xmlns="http://www.w3.org/2000/svg">
<circle cx="13.2671" cy="13.2671" r="12.7419" fill="#1D2F6F" stroke="#1D2F6F" stroke-width="1.05042"/>
<g clip-path="url(#clip0_665_824)">
<path d="M19.587 10.8716C19.558 10.2147 19.4518 9.76315 19.2996 9.37184C19.1427 8.95648 18.9012 8.5846 18.5848 8.27546C18.2756 7.96151 17.9013 7.71755 17.4907 7.56303C17.0972 7.41086 16.6479 7.30464 15.9911 7.27568C15.3293 7.24426 15.1192 7.237 13.4408 7.237C11.7623 7.237 11.5522 7.24426 10.8929 7.27322C10.236 7.30219 9.78445 7.4085 9.39324 7.56057C8.97778 7.71755 8.6059 7.95905 8.29676 8.27546C7.98281 8.5846 7.73895 8.95893 7.58433 9.36948C7.43216 9.76315 7.32594 10.2123 7.29698 10.8692C7.26556 11.5309 7.2583 11.741 7.2583 13.4195C7.2583 15.0979 7.26556 15.308 7.29453 15.9673C7.32349 16.6242 7.42981 17.0758 7.58197 17.4671C7.73895 17.8824 7.98281 18.2543 8.29676 18.5635C8.6059 18.8774 8.98023 19.1214 9.39078 19.2759C9.78445 19.428 10.2336 19.5343 10.8906 19.5632C11.5498 19.5923 11.76 19.5995 13.4384 19.5995C15.1168 19.5995 15.3269 19.5923 15.9862 19.5632C16.6431 19.5343 17.0947 19.428 17.4859 19.2759C18.3167 18.9547 18.9736 18.2978 19.2948 17.4671C19.4469 17.0734 19.5532 16.6242 19.5822 15.9673C19.6111 15.308 19.6184 15.0979 19.6184 13.4195C19.6184 11.741 19.6159 11.5309 19.587 10.8716ZM18.4737 15.919C18.4471 16.5228 18.3457 16.8488 18.2612 17.0661C18.0534 17.6047 17.626 18.0321 17.0874 18.2399C16.8701 18.3244 16.5417 18.4258 15.9403 18.4523C15.2882 18.4814 15.0927 18.4885 13.4432 18.4885C11.7937 18.4885 11.5957 18.4814 10.946 18.4523C10.3423 18.4258 10.0162 18.3244 9.79889 18.2399C9.53087 18.1408 9.28692 17.9838 9.08891 17.7786C8.88363 17.5781 8.72665 17.3366 8.6276 17.0686C8.54307 16.8512 8.44166 16.5228 8.41515 15.9215C8.3861 15.2694 8.37893 15.0737 8.37893 13.4243C8.37893 11.7748 8.3861 11.5768 8.41515 10.9272C8.44166 10.3234 8.54307 9.99739 8.6276 9.78004C8.72665 9.51193 8.88363 9.26807 9.09136 9.06996C9.29173 8.86469 9.53323 8.70771 9.80134 8.60875C10.0187 8.52422 10.3472 8.42281 10.9485 8.39621C11.6005 8.36725 11.7962 8.35998 13.4456 8.35998C15.0975 8.35998 15.2931 8.36725 15.9428 8.39621C16.5465 8.42281 16.8725 8.52422 17.0899 8.60875C17.3579 8.70771 17.6019 8.86469 17.7999 9.06996C18.0051 9.27043 18.1621 9.51193 18.2612 9.78004C18.3457 9.99739 18.4471 10.3258 18.4737 10.9272C18.5027 11.5792 18.5099 11.7748 18.5099 13.4243C18.5099 15.0737 18.5027 15.2669 18.4737 15.919Z" fill="white"/>
<path d="M13.4406 10.2436C11.6874 10.2436 10.2649 11.666 10.2649 13.4193C10.2649 15.1727 11.6874 16.5951 13.4406 16.5951C15.194 16.5951 16.6164 15.1727 16.6164 13.4193C16.6164 11.666 15.194 10.2436 13.4406 10.2436ZM13.4406 15.4794C12.3032 15.4794 11.3806 14.5569 11.3806 13.4193C11.3806 12.2818 12.3032 11.3593 13.4406 11.3593C14.5782 11.3593 15.5007 12.2818 15.5007 13.4193C15.5007 14.5569 14.5782 15.4794 13.4406 15.4794Z" fill="white"/>
<path d="M17.4834 10.1177C17.4834 10.5272 17.1514 10.8591 16.7419 10.8591C16.3325 10.8591 16.0005 10.5272 16.0005 10.1177C16.0005 9.70822 16.3325 9.37634 16.7419 9.37634C17.1514 9.37634 17.4834 9.70822 17.4834 10.1177Z" fill="white"/>
</g>
<defs>
<clipPath id="clip0_665_824">
<rect width="12.3625" height="12.3625" fill="white" transform="translate(7.23657 7.23688)"/>
</clipPath>
</defs>
</svg>
