<svg width="27" height="27" viewBox="0 0 27 27" fill="none" xmlns="http://www.w3.org/2000/svg">
<circle cx="13.4719" cy="13.2673" r="12.7419" fill="#1D2F6F" stroke="#1D2F6F" stroke-width="1.05042"/>
<g clip-path="url(#clip0_665_846)">
<path d="M19.8011 19.5995L19.8042 19.599V15.065C19.8042 12.847 19.3267 11.1384 16.7337 11.1384C15.4871 11.1384 14.6506 11.8224 14.3091 12.4709H14.273V11.3454H11.8145V19.599H14.3745V15.5121C14.3745 14.4361 14.5785 13.3956 15.9111 13.3956C17.2241 13.3956 17.2436 14.6236 17.2436 15.5811V19.5995H19.8011Z" fill="white"/>
<path d="M7.64575 11.3457H10.2089V19.5992H7.64575V11.3457Z" fill="white"/>
<path d="M8.92618 7.23694C8.10665 7.23694 7.44165 7.90194 7.44165 8.72147C7.44165 9.541 8.10665 10.2199 8.92618 10.2199C9.74571 10.2199 10.4107 9.541 10.4107 8.72147C10.4102 7.90194 9.7452 7.23694 8.92618 7.23694Z" fill="white"/>
</g>
<defs>
<clipPath id="clip0_665_846">
<rect width="12.3625" height="12.3625" fill="white" transform="translate(7.44165 7.23694)"/>
</clipPath>
</defs>
</svg>
