<svg width="28" height="27" viewBox="0 0 28 27" fill="none" xmlns="http://www.w3.org/2000/svg">
<circle cx="13.8696" cy="13.2673" r="12.7419" fill="#1D2F6F" stroke="#1D2F6F" stroke-width="1.05042"/>
<path d="M21.5469 8.70047C20.9811 8.94867 20.3782 9.11318 19.7496 9.19307C20.3963 8.80698 20.8898 8.20026 21.1218 7.46897C20.5189 7.82844 19.8533 8.08234 19.1438 8.22404C18.5714 7.61447 17.7554 7.23694 16.8653 7.23694C15.1384 7.23694 13.7481 8.63866 13.7481 10.357C13.7481 10.6043 13.769 10.842 13.8204 11.0684C11.2271 10.9419 8.93242 9.69898 7.39091 7.80561C7.12179 8.27254 6.96393 8.80698 6.96393 9.38231C6.96393 10.4626 7.52024 11.4202 8.34948 11.9746C7.84833 11.9651 7.35668 11.8196 6.94016 11.5904C6.94016 11.5999 6.94016 11.6123 6.94016 11.6247C6.94016 13.1405 8.0214 14.3996 9.43928 14.6896C9.18538 14.759 8.90865 14.7923 8.62146 14.7923C8.42176 14.7923 8.22015 14.7809 8.03091 14.7391C8.43507 15.9744 9.58193 16.8825 10.9456 16.912C9.88433 17.7422 8.53682 18.2424 7.07805 18.2424C6.82224 18.2424 6.57689 18.231 6.33154 18.1996C7.71329 19.0907 9.35085 19.5994 11.1168 19.5994C16.8568 19.5994 19.995 14.8446 19.995 10.7232C19.995 10.5853 19.9902 10.4521 19.9835 10.32C20.6026 9.88061 21.1228 9.33191 21.5469 8.70047Z" fill="white"/>
</svg>
