<svg width="1126" height="160" viewBox="0 0 1126 160" fill="none" xmlns="http://www.w3.org/2000/svg">
<rect width="1126" height="160" rx="24" fill="#FAFAFA"/>
<g opacity="0.1">
<path d="M558.332 127.742L553.437 122.861C546.721 116.163 546.778 105.264 553.551 98.68L558.332 94.0256C556.112 93.7985 554.461 93.685 552.64 93.685C537.443 93.685 507.107 101.291 507.107 116.39V127.742H558.332ZM552.64 82.3326C565.219 82.3326 575.407 72.1721 575.407 59.6277C575.407 47.0833 565.219 36.9229 552.64 36.9229C540.062 36.9229 529.874 47.0833 529.874 59.6277C529.874 72.1721 540.062 82.3326 552.64 82.3326Z" fill="#999999"/>
<path d="M582.122 126.493C579.903 128.707 576.26 128.707 574.04 126.493L562.259 114.63C560.096 112.416 560.096 108.897 562.259 106.74L562.316 106.683C564.535 104.47 568.121 104.47 570.284 106.683L578.081 114.46L603.295 89.1439C605.515 86.9302 609.101 86.9302 611.321 89.1439L611.378 89.2007C613.54 91.4144 613.54 94.9337 611.378 97.0906L582.122 126.493Z" fill="#999999"/>
</g>
<g opacity="0.1">
<path d="M330.143 29V36.2857H339.563L301 74.849L286.429 60.2776L251.067 95.6388L256.218 100.79L286.429 70.5796L301 85.151L344.714 41.4367V50.8571H352V29H330.143Z" fill="#999999"/>
<path d="M273.365 105.5H255.778L250 111.278V131H279.143V111.278L273.365 105.5Z" fill="#999999"/>
<path d="M292.221 90.9287L286.429 96.7209V131H315.572V96.7209L309.779 90.9287H292.221Z" fill="#999999"/>
<path d="M328.649 69.0715L322.857 74.8637V131H352V74.8637L346.207 69.0715H328.649Z" fill="#999999"/>
</g>
<g opacity="0.1">
<path d="M63.3311 124.271C77.0927 124.271 88.2487 104.595 88.2487 80.323C88.2487 56.0513 77.0927 36.3752 63.3311 36.3752C49.5695 36.3752 38.4136 56.0513 38.4136 80.323C38.4136 104.595 49.5695 124.271 63.3311 124.271Z" fill="#999999"/>
<path d="M117 80.3231C117 77.0671 116.808 73.878 116.458 70.7692H116.498L116.197 68.5967C116.178 68.4572 116.147 68.3235 116.126 68.1858C115.93 66.8311 115.7 65.4954 115.442 64.179C115.342 63.6631 115.235 63.151 115.125 62.6409C114.901 61.6091 114.656 60.5925 114.393 59.5876C114.173 58.7353 113.935 57.8945 113.688 57.0595C113.477 56.3526 113.26 55.6513 113.032 54.9614C112.647 53.7959 112.231 52.6571 111.792 51.5279C111.648 51.1591 111.509 50.7885 111.359 50.4253C111.165 49.9515 110.999 49.4584 110.795 48.9902L110.293 47.8399H110.228C108.62 44.3567 106.763 41.1542 104.692 38.286H104.99L102.297 35.137C98.6069 30.8206 94.4993 27.6526 90.133 25.6214C90.02 25.5679 89.9068 25.522 89.7938 25.4705C88.9063 25.071 88.0074 24.7157 87.0988 24.4138C86.6772 24.2725 86.2536 24.1386 85.8261 24.0164C85.4389 23.9075 85.0537 23.7947 84.6626 23.7049C83.8538 23.5139 83.0353 23.3668 82.2111 23.2539C81.9677 23.2215 81.7224 23.1966 81.4771 23.17C80.5492 23.0687 79.6139 23 78.6689 23H63.3349C42.1972 23 25 48.7152 25 80.3231C25 111.931 42.197 137.646 63.3349 137.646H78.6689C79.6157 137.646 80.5492 137.577 81.4789 137.476C81.7242 137.45 81.9677 137.425 82.2129 137.392C83.0391 137.278 83.8556 137.13 84.6644 136.941C85.0535 136.851 85.4387 136.739 85.8241 136.63C86.2534 136.508 86.679 136.374 87.1026 136.232C88.0074 135.932 88.9005 135.579 89.7862 135.179C89.9032 135.126 90.02 135.078 90.137 135.023C94.5013 132.992 98.6089 129.825 102.299 125.509L104.99 122.36H104.697C106.767 119.492 108.624 116.29 110.232 112.806H110.297L110.797 111.656C111.001 111.19 111.167 110.697 111.359 110.223C111.512 109.852 111.654 109.474 111.8 109.097C112.235 107.978 112.649 106.847 113.03 105.691C113.264 104.989 113.483 104.277 113.697 103.558C113.941 102.733 114.177 101.903 114.393 101.061C114.656 100.052 114.903 99.0297 115.127 97.994C115.237 97.4857 115.342 96.9757 115.442 96.4635C115.7 95.1471 115.93 93.8115 116.126 92.4585C116.145 92.3191 116.177 92.1872 116.197 92.0477L116.498 89.8752H116.458C116.808 86.7681 117 83.5791 117 80.3231ZM111.267 62.851C111.282 62.9217 111.298 62.9943 111.313 63.065C111.595 64.3414 111.848 65.6349 112.068 66.9457H100.617C100.587 66.7565 100.545 66.5732 100.514 66.386C100.382 65.6007 100.236 64.8248 100.083 64.053C99.9025 63.1378 99.703 62.2338 99.4942 61.3339C99.4137 60.9996 99.3369 60.6633 99.2545 60.3308C98.5128 57.3403 97.6253 54.4379 96.5539 51.6597H107.763C109.222 55.1927 110.391 58.9378 111.267 62.851ZM106.053 47.8399H94.8942C94.8904 47.8341 94.8884 47.8285 94.8846 47.8209C94.7772 47.5896 94.668 47.3643 94.5586 47.135C94.1253 46.2255 93.677 45.3352 93.2093 44.4657C93.1366 44.33 93.0676 44.1887 92.9928 44.0548C92.4677 43.0955 91.9176 42.167 91.352 41.2612C91.2179 41.0471 91.0818 40.8371 90.9477 40.6268C90.434 39.8243 89.9068 39.0428 89.3605 38.2862H99.9717C102.245 41.0664 104.29 44.2745 106.053 47.8399ZM78.6651 26.8216C79.3742 26.8216 80.0797 26.8655 80.7812 26.9325C80.9921 26.9515 81.201 26.9822 81.4117 27.007C81.9272 27.0702 82.4409 27.1503 82.9508 27.2497C83.1559 27.2898 83.363 27.3261 83.5681 27.372C84.9654 27.6815 86.3416 28.123 87.6968 28.6942C87.8405 28.7554 87.9805 28.8203 88.1242 28.8835C88.7453 29.1604 89.3625 29.4567 89.9719 29.7892C90.0236 29.8179 90.0773 29.8427 90.1292 29.8714C92.2931 31.0637 94.3823 32.598 96.3758 34.4648H86.3742C83.5258 31.2586 80.4438 28.7001 77.1891 26.8218H78.6651V26.8216ZM63.3311 128.092C47.746 128.092 34.58 106.218 34.58 80.3231C34.58 54.4285 47.746 32.5539 63.3311 32.5539C78.9162 32.5539 92.0822 54.4285 92.0822 80.3231C92.0822 106.218 78.9162 128.092 63.3311 128.092ZM90.1271 130.777C90.0773 130.804 90.0274 130.829 89.9775 130.855C89.3641 131.188 88.7451 131.488 88.1202 131.765C87.9802 131.826 87.8403 131.891 87.6986 131.95C86.3434 132.524 84.9652 132.965 83.566 133.275C83.3628 133.32 83.1577 133.357 82.9508 133.397C82.4391 133.496 81.9254 133.576 81.4097 133.64C81.2008 133.664 80.9919 133.693 80.781 133.714C80.0775 133.781 79.3742 133.825 78.6649 133.825H77.1909C80.4436 131.947 83.5258 129.388 86.374 126.182H96.3756C94.3823 128.05 92.2911 129.583 90.1271 130.777ZM99.9697 122.36H89.3585C89.9048 121.603 90.4319 120.822 90.9474 120.019C91.0836 119.809 91.2197 119.599 91.3517 119.385C91.9171 118.479 92.4672 117.551 92.9926 116.591C93.0674 116.456 93.1363 116.316 93.2091 116.18C93.6768 115.311 94.1253 114.421 94.5584 113.511C94.6676 113.282 94.777 113.056 94.8843 112.825C94.8861 112.819 94.8902 112.814 94.894 112.806H106.053C104.29 116.372 102.245 119.58 99.9697 122.36ZM111.313 97.5793C111.298 97.6501 111.282 97.7226 111.267 97.7934C110.391 101.707 109.222 105.452 107.763 108.985H96.5539C97.6274 106.205 98.5148 103.298 99.2565 100.308C99.3369 99.9831 99.4137 99.6526 99.4903 99.3259C99.703 98.4146 99.9043 97.4992 100.086 96.5706C100.238 95.8064 100.382 95.0381 100.514 94.2604C100.545 94.0712 100.587 93.8878 100.617 93.6986H112.068C111.85 95.0092 111.595 96.3028 111.313 97.5793ZM112.605 89.877H101.124C101.135 89.7758 101.148 89.6764 101.16 89.5769C101.173 89.4451 101.192 89.317 101.206 89.1853C101.34 87.9014 101.438 86.602 101.513 85.2912C101.532 84.9779 101.547 84.6644 101.56 84.3511C101.622 83.0193 101.666 81.678 101.666 80.3233C101.666 78.9686 101.624 77.6271 101.56 76.2955C101.545 75.9822 101.53 75.6687 101.513 75.3554C101.438 74.0466 101.34 72.7452 101.206 71.4613C101.192 71.3294 101.173 71.2013 101.16 71.0697C101.148 70.9684 101.135 70.869 101.124 70.7696H112.605C112.967 73.8727 113.166 77.0617 113.166 80.3235C113.166 83.5853 112.967 86.7739 112.605 89.877Z" fill="#999999"/>
</g>
<path d="M78.728 90.576C76.328 90.576 74.2 90.16 72.344 89.328C70.52 88.496 69.064 87.312 67.976 85.776C66.888 84.208 66.296 82.384 66.2 80.304H73.544C73.8 81.328 74.392 82.224 75.32 82.992C76.248 83.76 77.368 84.144 78.68 84.144C79.64 84.144 80.488 83.888 81.224 83.376C81.992 82.864 82.6 82.176 83.048 81.312C83.496 80.416 83.72 79.424 83.72 78.336C83.72 76.64 83.24 75.328 82.28 74.4C81.352 73.44 80.184 72.96 78.776 72.96C77.592 72.96 76.552 73.28 75.656 73.92C74.792 74.528 74.184 75.264 73.832 76.128H66.584L69.464 56.4H88.76V63.024H75.032L73.784 69.168C74.424 68.528 75.304 68 76.424 67.584C77.544 67.136 78.792 66.912 80.168 66.912C82.696 66.912 84.728 67.472 86.264 68.592C87.832 69.68 89.016 71.072 89.816 72.768C90.168 73.664 90.44 74.576 90.632 75.504C90.856 76.4 90.968 77.328 90.968 78.288C90.968 80.56 90.472 82.64 89.48 84.528C88.488 86.384 87.064 87.856 85.208 88.944C83.384 90.032 81.224 90.576 78.728 90.576ZM105.347 90.576C102.275 90.576 99.8114 89.808 97.9554 88.272C96.0994 86.736 94.7554 84.656 93.9234 82.032C93.0914 79.408 92.6754 76.464 92.6754 73.2C92.6754 69.936 93.0914 66.992 93.9234 64.368C94.7554 61.744 96.0994 59.664 97.9554 58.128C99.8114 56.592 102.275 55.824 105.347 55.824C108.419 55.824 110.867 56.576 112.691 58.08C114.547 59.584 115.891 61.648 116.723 64.272C117.555 66.896 117.971 69.872 117.971 73.2C117.971 76.528 117.555 79.504 116.723 82.128C115.891 84.752 114.547 86.816 112.691 88.32C110.867 89.824 108.419 90.576 105.347 90.576ZM105.347 83.856C107.075 83.856 108.339 82.912 109.139 81.024C109.939 79.104 110.339 76.496 110.339 73.2C110.339 69.904 109.939 67.312 109.139 65.424C108.339 63.504 107.075 62.544 105.347 62.544C103.619 62.544 102.339 63.504 101.507 65.424C100.707 67.312 100.307 69.904 100.307 73.2C100.307 76.496 100.707 79.104 101.507 81.024C102.339 82.912 103.619 83.856 105.347 83.856ZM132.207 90.576C129.135 90.576 126.671 89.808 124.815 88.272C122.959 86.736 121.615 84.656 120.783 82.032C119.951 79.408 119.535 76.464 119.535 73.2C119.535 69.936 119.951 66.992 120.783 64.368C121.615 61.744 122.959 59.664 124.815 58.128C126.671 56.592 129.135 55.824 132.207 55.824C135.279 55.824 137.727 56.576 139.551 58.08C141.407 59.584 142.751 61.648 143.583 64.272C144.415 66.896 144.831 69.872 144.831 73.2C144.831 76.528 144.415 79.504 143.583 82.128C142.751 84.752 141.407 86.816 139.551 88.32C137.727 89.824 135.279 90.576 132.207 90.576ZM132.207 83.856C133.935 83.856 135.199 82.912 135.999 81.024C136.799 79.104 137.199 76.496 137.199 73.2C137.199 69.904 136.799 67.312 135.999 65.424C135.199 63.504 133.935 62.544 132.207 62.544C130.479 62.544 129.199 63.504 128.367 65.424C127.567 67.312 127.167 69.904 127.167 73.2C127.167 76.496 127.567 79.104 128.367 81.024C129.199 82.912 130.479 83.856 132.207 83.856ZM156.858 87.888V79.296H147.93V73.008H156.858V64.368H163.194V73.008H172.026V79.296H163.194V87.888H156.858Z" fill="#1D2F6F"/>
<path d="M106.096 122.192C104.955 122.192 103.979 121.941 103.168 121.44C102.357 120.939 101.739 120.251 101.312 119.376C100.896 118.501 100.688 117.515 100.688 116.416C100.688 115.307 100.896 114.315 101.312 113.44C101.728 112.565 102.336 111.877 103.136 111.376C103.947 110.864 104.933 110.608 106.096 110.608C107.419 110.608 108.501 110.933 109.344 111.584C110.187 112.235 110.715 113.141 110.928 114.304H108.928C108.779 113.675 108.464 113.173 107.984 112.8C107.504 112.427 106.869 112.24 106.08 112.24C105.323 112.24 104.683 112.416 104.16 112.768C103.637 113.12 103.237 113.605 102.96 114.224C102.683 114.843 102.544 115.573 102.544 116.416C102.544 117.248 102.683 117.979 102.96 118.608C103.237 119.227 103.637 119.712 104.16 120.064C104.693 120.405 105.333 120.576 106.08 120.576C106.869 120.576 107.504 120.4 107.984 120.048C108.464 119.685 108.779 119.2 108.928 118.592H110.928C110.715 119.723 110.187 120.608 109.344 121.248C108.501 121.877 107.419 122.192 106.096 122.192ZM116.025 122.192C115.247 122.192 114.548 122.021 113.929 121.68C113.311 121.339 112.82 120.859 112.457 120.24C112.105 119.611 111.929 118.875 111.929 118.032C111.929 117.168 112.116 116.427 112.489 115.808C112.863 115.189 113.364 114.715 113.993 114.384C114.623 114.043 115.321 113.872 116.089 113.872C116.868 113.872 117.567 114.043 118.185 114.384C118.815 114.715 119.311 115.189 119.673 115.808C120.047 116.427 120.233 117.168 120.233 118.032C120.233 118.832 120.052 119.547 119.689 120.176C119.337 120.805 118.841 121.301 118.201 121.664C117.572 122.016 116.847 122.192 116.025 122.192ZM116.041 120.624C116.5 120.624 116.9 120.512 117.241 120.288C117.593 120.053 117.871 119.739 118.073 119.344C118.276 118.949 118.377 118.501 118.377 118C118.377 117.477 118.276 117.024 118.073 116.64C117.871 116.256 117.593 115.963 117.241 115.76C116.9 115.547 116.505 115.44 116.057 115.44C115.588 115.44 115.177 115.552 114.825 115.776C114.484 116 114.223 116.309 114.041 116.704C113.86 117.088 113.769 117.531 113.769 118.032C113.769 118.576 113.871 119.045 114.073 119.44C114.287 119.824 114.564 120.117 114.905 120.32C115.257 120.523 115.636 120.624 116.041 120.624ZM122.36 112.8C122.03 112.8 121.747 112.683 121.512 112.448C121.278 112.213 121.16 111.931 121.16 111.6C121.16 111.269 121.278 110.992 121.512 110.768C121.747 110.533 122.03 110.416 122.36 110.416C122.691 110.416 122.974 110.533 123.208 110.768C123.443 110.992 123.56 111.269 123.56 111.6C123.56 111.931 123.443 112.213 123.208 112.448C122.974 112.683 122.691 112.8 122.36 112.8ZM121.448 122V114.064H123.272V122H121.448ZM124.816 122V114.064H126.576L126.608 115.152C126.874 114.736 127.242 114.421 127.712 114.208C128.181 113.984 128.672 113.872 129.184 113.872C130.112 113.872 130.864 114.165 131.44 114.752C132.016 115.339 132.304 116.203 132.304 117.344V122H130.512V117.568C130.512 116.896 130.352 116.368 130.032 115.984C129.712 115.6 129.242 115.408 128.624 115.408C128.005 115.408 127.514 115.616 127.152 116.032C126.8 116.437 126.624 116.992 126.624 117.696V122H124.816ZM136.822 122.192C136.214 122.192 135.649 122.085 135.126 121.872C134.614 121.648 134.193 121.333 133.862 120.928C133.542 120.523 133.361 120.048 133.318 119.504H135.142C135.206 119.877 135.387 120.181 135.686 120.416C135.995 120.64 136.369 120.752 136.806 120.752C137.201 120.752 137.526 120.667 137.782 120.496C138.049 120.325 138.182 120.091 138.182 119.792C138.182 119.536 138.091 119.339 137.91 119.2C137.729 119.051 137.505 118.939 137.238 118.864C136.971 118.779 136.694 118.704 136.406 118.64C135.905 118.523 135.435 118.379 134.998 118.208C134.571 118.037 134.225 117.797 133.958 117.488C133.691 117.179 133.558 116.773 133.558 116.272C133.558 115.771 133.697 115.344 133.974 114.992C134.251 114.629 134.619 114.352 135.078 114.16C135.547 113.968 136.07 113.872 136.646 113.872C137.521 113.872 138.246 114.091 138.822 114.528C139.409 114.965 139.734 115.605 139.798 116.448H138.07C138.027 116.085 137.873 115.808 137.606 115.616C137.35 115.424 137.014 115.328 136.598 115.328C136.235 115.328 135.931 115.397 135.686 115.536C135.451 115.675 135.334 115.899 135.334 116.208C135.334 116.421 135.419 116.597 135.59 116.736C135.771 116.875 135.995 116.992 136.262 117.088C136.539 117.173 136.811 117.248 137.078 117.312C137.622 117.44 138.107 117.589 138.534 117.76C138.961 117.931 139.297 118.171 139.542 118.48C139.798 118.789 139.931 119.211 139.942 119.744C139.942 120.256 139.803 120.693 139.526 121.056C139.249 121.419 138.875 121.701 138.406 121.904C137.937 122.096 137.409 122.192 136.822 122.192Z" fill="#999999"/>
<path d="M336.072 122V110.8H338.216L341.64 118.208L345 110.8H347.16V122H345.336V114.048L342.328 120.512H340.904L337.896 114.048V122H336.072ZM351.229 122.192C350.738 122.192 350.28 122.101 349.853 121.92C349.437 121.728 349.101 121.451 348.845 121.088C348.6 120.725 348.477 120.293 348.477 119.792C348.477 119.195 348.626 118.709 348.925 118.336C349.224 117.963 349.629 117.691 350.141 117.52C350.653 117.339 351.218 117.248 351.837 117.248H353.821C353.821 116.821 353.752 116.475 353.613 116.208C353.474 115.931 353.282 115.728 353.037 115.6C352.792 115.461 352.504 115.392 352.173 115.392C351.746 115.392 351.373 115.488 351.053 115.68C350.733 115.872 350.536 116.187 350.461 116.624H348.637C348.69 116.048 348.882 115.557 349.213 115.152C349.554 114.736 349.986 114.421 350.509 114.208C351.032 113.984 351.592 113.872 352.189 113.872C352.957 113.872 353.592 114.016 354.093 114.304C354.605 114.581 354.989 114.971 355.245 115.472C355.512 115.973 355.645 116.555 355.645 117.216V119.632C355.656 119.92 355.725 120.128 355.853 120.256C355.992 120.384 356.205 120.453 356.493 120.464V122C356.045 122 355.661 121.952 355.341 121.856C355.021 121.76 354.754 121.616 354.541 121.424C354.338 121.232 354.173 120.981 354.045 120.672C353.789 121.099 353.41 121.461 352.909 121.76C352.418 122.048 351.858 122.192 351.229 122.192ZM351.693 120.72C352.109 120.72 352.472 120.624 352.781 120.432C353.101 120.229 353.352 119.963 353.533 119.632C353.725 119.291 353.821 118.917 353.821 118.512V118.464H351.965C351.688 118.464 351.421 118.501 351.165 118.576C350.909 118.651 350.706 118.773 350.557 118.944C350.408 119.104 350.333 119.328 350.333 119.616C350.333 120 350.466 120.283 350.733 120.464C351 120.635 351.32 120.72 351.693 120.72ZM357.446 122V114.064H359.206L359.238 115.36C359.505 114.891 359.862 114.528 360.31 114.272C360.769 114.005 361.297 113.872 361.894 113.872V115.776H361.398C360.673 115.776 360.134 115.957 359.782 116.32C359.43 116.683 359.254 117.248 359.254 118.016V122H357.446ZM362.784 122V110.8H364.592V117.424L367.44 114.064H369.744L366.256 117.92L369.936 122H367.6L364.592 118.384V122H362.784ZM373.897 122.192C373.097 122.192 372.398 122.016 371.801 121.664C371.204 121.301 370.734 120.811 370.393 120.192C370.062 119.563 369.897 118.843 369.897 118.032C369.897 117.189 370.062 116.459 370.393 115.84C370.734 115.221 371.204 114.741 371.801 114.4C372.409 114.048 373.113 113.872 373.913 113.872C374.692 113.872 375.369 114.043 375.945 114.384C376.521 114.715 376.974 115.173 377.305 115.76C377.636 116.347 377.801 117.013 377.801 117.76C377.801 117.909 377.796 118.043 377.785 118.16C377.785 118.277 377.774 118.405 377.753 118.544H371.721C371.753 118.96 371.86 119.333 372.041 119.664C372.222 119.984 372.468 120.235 372.777 120.416C373.097 120.597 373.46 120.688 373.865 120.688C374.302 120.688 374.67 120.592 374.969 120.4C375.278 120.208 375.518 119.931 375.689 119.568H377.593C377.444 120.048 377.204 120.485 376.873 120.88C376.553 121.275 376.142 121.595 375.641 121.84C375.15 122.075 374.569 122.192 373.897 122.192ZM371.737 117.28H375.945C375.934 116.693 375.726 116.229 375.321 115.888C374.916 115.547 374.43 115.376 373.865 115.376C373.353 115.376 372.889 115.531 372.473 115.84C372.068 116.149 371.822 116.629 371.737 117.28ZM381.799 122C380.989 122 380.37 121.803 379.943 121.408C379.517 121.013 379.303 120.384 379.303 119.52V115.584H378.167V114.064H379.303V112.144H381.127V114.064H383.063V115.584H381.127V119.536C381.127 119.899 381.213 120.149 381.383 120.288C381.554 120.416 381.81 120.48 382.151 120.48H383.063V122H381.799ZM387.436 122.192C386.828 122.192 386.262 122.085 385.74 121.872C385.228 121.648 384.806 121.333 384.476 120.928C384.156 120.523 383.974 120.048 383.932 119.504H385.756C385.82 119.877 386.001 120.181 386.3 120.416C386.609 120.64 386.982 120.752 387.42 120.752C387.814 120.752 388.14 120.667 388.396 120.496C388.662 120.325 388.796 120.091 388.796 119.792C388.796 119.536 388.705 119.339 388.524 119.2C388.342 119.051 388.118 118.939 387.852 118.864C387.585 118.779 387.308 118.704 387.02 118.64C386.518 118.523 386.049 118.379 385.612 118.208C385.185 118.037 384.838 117.797 384.572 117.488C384.305 117.179 384.172 116.773 384.172 116.272C384.172 115.771 384.31 115.344 384.588 114.992C384.865 114.629 385.233 114.352 385.692 114.16C386.161 113.968 386.684 113.872 387.26 113.872C388.134 113.872 388.86 114.091 389.436 114.528C390.022 114.965 390.348 115.605 390.412 116.448H388.684C388.641 116.085 388.486 115.808 388.22 115.616C387.964 115.424 387.628 115.328 387.212 115.328C386.849 115.328 386.545 115.397 386.3 115.536C386.065 115.675 385.948 115.899 385.948 116.208C385.948 116.421 386.033 116.597 386.204 116.736C386.385 116.875 386.609 116.992 386.876 117.088C387.153 117.173 387.425 117.248 387.692 117.312C388.236 117.44 388.721 117.589 389.148 117.76C389.574 117.931 389.91 118.171 390.156 118.48C390.412 118.789 390.545 119.211 390.556 119.744C390.556 120.256 390.417 120.693 390.14 121.056C389.862 121.419 389.489 121.701 389.02 121.904C388.55 122.096 388.022 122.192 387.436 122.192Z" fill="#999999"/>
<path d="M602.072 122V110.8H605.768C606.557 110.8 607.235 110.923 607.8 111.168C608.365 111.413 608.803 111.771 609.112 112.24C609.421 112.709 609.576 113.296 609.576 114C609.576 114.821 609.357 115.467 608.92 115.936C608.493 116.405 607.901 116.725 607.144 116.896L610.296 122H608.136L605.336 117.2H603.896V122H602.072ZM603.896 115.664H605.736C606.248 115.664 606.648 115.595 606.936 115.456C607.235 115.317 607.443 115.125 607.56 114.88C607.677 114.624 607.736 114.331 607.736 114C607.736 113.659 607.677 113.365 607.56 113.12C607.443 112.864 607.235 112.672 606.936 112.544C606.648 112.405 606.248 112.336 605.736 112.336H603.896V115.664ZM614.304 122.192C613.504 122.192 612.806 122.016 612.208 121.664C611.611 121.301 611.142 120.811 610.8 120.192C610.47 119.563 610.304 118.843 610.304 118.032C610.304 117.189 610.47 116.459 610.8 115.84C611.142 115.221 611.611 114.741 612.208 114.4C612.816 114.048 613.52 113.872 614.32 113.872C615.099 113.872 615.776 114.043 616.352 114.384C616.928 114.715 617.382 115.173 617.712 115.76C618.043 116.347 618.208 117.013 618.208 117.76C618.208 117.909 618.203 118.043 618.192 118.16C618.192 118.277 618.182 118.405 618.16 118.544H612.128C612.16 118.96 612.267 119.333 612.448 119.664C612.63 119.984 612.875 120.235 613.184 120.416C613.504 120.597 613.867 120.688 614.272 120.688C614.71 120.688 615.078 120.592 615.376 120.4C615.686 120.208 615.926 119.931 616.096 119.568H618C617.851 120.048 617.611 120.485 617.28 120.88C616.96 121.275 616.55 121.595 616.048 121.84C615.558 122.075 614.976 122.192 614.304 122.192ZM612.144 117.28H616.352C616.342 116.693 616.134 116.229 615.728 115.888C615.323 115.547 614.838 115.376 614.272 115.376C613.76 115.376 613.296 115.531 612.88 115.84C612.475 116.149 612.23 116.629 612.144 117.28ZM622.557 125.712C621.864 125.712 621.229 125.632 620.653 125.472C620.077 125.312 619.613 125.051 619.261 124.688C618.92 124.325 618.749 123.845 618.749 123.248C618.749 122.853 618.834 122.517 619.005 122.24C619.186 121.963 619.442 121.733 619.773 121.552C619.506 121.392 619.298 121.195 619.149 120.96C619 120.715 618.925 120.437 618.925 120.128C618.925 119.445 619.245 118.912 619.885 118.528C619.65 118.283 619.469 118.005 619.341 117.696C619.224 117.387 619.165 117.056 619.165 116.704C619.165 116.117 619.298 115.616 619.565 115.2C619.842 114.773 620.221 114.448 620.701 114.224C621.192 113.989 621.752 113.872 622.381 113.872C622.829 113.872 623.25 113.936 623.645 114.064H626.445V115.472H625.293C625.378 115.664 625.448 115.861 625.501 116.064C625.565 116.267 625.597 116.48 625.597 116.704C625.597 117.269 625.453 117.765 625.165 118.192C624.877 118.619 624.493 118.949 624.013 119.184C623.533 119.408 622.989 119.52 622.381 119.52C622.104 119.52 621.848 119.493 621.613 119.44C621.378 119.387 621.149 119.307 620.925 119.2C620.68 119.328 620.557 119.525 620.557 119.792C620.557 120.283 620.968 120.528 621.789 120.528H623.197C623.826 120.528 624.365 120.613 624.813 120.784C625.272 120.944 625.624 121.211 625.869 121.584C626.114 121.947 626.237 122.416 626.237 122.992C626.237 123.568 626.066 124.059 625.725 124.464C625.394 124.869 624.946 125.179 624.381 125.392C623.826 125.605 623.218 125.712 622.557 125.712ZM622.541 124.272C623.096 124.272 623.565 124.176 623.949 123.984C624.344 123.792 624.541 123.504 624.541 123.12C624.541 122.395 624.061 122.032 623.101 122.032H621.885C621.426 122.032 621.069 122.123 620.813 122.304C620.568 122.496 620.445 122.768 620.445 123.12C620.445 123.408 620.541 123.632 620.733 123.792C620.925 123.963 621.181 124.085 621.501 124.16C621.821 124.235 622.168 124.272 622.541 124.272ZM622.349 118.08C622.808 118.08 623.181 117.952 623.469 117.696C623.768 117.44 623.917 117.109 623.917 116.704C623.917 116.299 623.768 115.968 623.469 115.712C623.181 115.445 622.808 115.312 622.349 115.312C621.901 115.312 621.533 115.445 621.245 115.712C620.968 115.968 620.829 116.299 620.829 116.704C620.829 117.109 620.962 117.44 621.229 117.696C621.506 117.952 621.88 118.08 622.349 118.08ZM628.386 112.8C628.055 112.8 627.773 112.683 627.538 112.448C627.303 112.213 627.186 111.931 627.186 111.6C627.186 111.269 627.303 110.992 627.538 110.768C627.773 110.533 628.055 110.416 628.386 110.416C628.717 110.416 628.999 110.533 629.234 110.768C629.469 110.992 629.586 111.269 629.586 111.6C629.586 111.931 629.469 112.213 629.234 112.448C628.999 112.683 628.717 112.8 628.386 112.8ZM627.474 122V114.064H629.298V122H627.474ZM634.025 122.192C633.417 122.192 632.852 122.085 632.329 121.872C631.817 121.648 631.396 121.333 631.065 120.928C630.745 120.523 630.564 120.048 630.521 119.504H632.345C632.409 119.877 632.59 120.181 632.889 120.416C633.198 120.64 633.572 120.752 634.009 120.752C634.404 120.752 634.729 120.667 634.985 120.496C635.252 120.325 635.385 120.091 635.385 119.792C635.385 119.536 635.294 119.339 635.113 119.2C634.932 119.051 634.708 118.939 634.441 118.864C634.174 118.779 633.897 118.704 633.609 118.64C633.108 118.523 632.638 118.379 632.201 118.208C631.774 118.037 631.428 117.797 631.161 117.488C630.894 117.179 630.761 116.773 630.761 116.272C630.761 115.771 630.9 115.344 631.177 114.992C631.454 114.629 631.822 114.352 632.281 114.16C632.75 113.968 633.273 113.872 633.849 113.872C634.724 113.872 635.449 114.091 636.025 114.528C636.612 114.965 636.937 115.605 637.001 116.448H635.273C635.23 116.085 635.076 115.808 634.809 115.616C634.553 115.424 634.217 115.328 633.801 115.328C633.438 115.328 633.134 115.397 632.889 115.536C632.654 115.675 632.537 115.899 632.537 116.208C632.537 116.421 632.622 116.597 632.793 116.736C632.974 116.875 633.198 116.992 633.465 117.088C633.742 117.173 634.014 117.248 634.281 117.312C634.825 117.44 635.31 117.589 635.737 117.76C636.164 117.931 636.5 118.171 636.745 118.48C637.001 118.789 637.134 119.211 637.145 119.744C637.145 120.256 637.006 120.693 636.729 121.056C636.452 121.419 636.078 121.701 635.609 121.904C635.14 122.096 634.612 122.192 634.025 122.192ZM641.284 122C640.473 122 639.854 121.803 639.428 121.408C639.001 121.013 638.788 120.384 638.788 119.52V115.584H637.652V114.064H638.788V112.144H640.612V114.064H642.548V115.584H640.612V119.536C640.612 119.899 640.697 120.149 640.868 120.288C641.038 120.416 641.294 120.48 641.636 120.48H642.548V122H641.284ZM647.245 122.192C646.445 122.192 645.746 122.016 645.149 121.664C644.552 121.301 644.082 120.811 643.741 120.192C643.41 119.563 643.245 118.843 643.245 118.032C643.245 117.189 643.41 116.459 643.741 115.84C644.082 115.221 644.552 114.741 645.149 114.4C645.757 114.048 646.461 113.872 647.261 113.872C648.04 113.872 648.717 114.043 649.293 114.384C649.869 114.715 650.322 115.173 650.653 115.76C650.984 116.347 651.149 117.013 651.149 117.76C651.149 117.909 651.144 118.043 651.133 118.16C651.133 118.277 651.122 118.405 651.101 118.544H645.069C645.101 118.96 645.208 119.333 645.389 119.664C645.57 119.984 645.816 120.235 646.125 120.416C646.445 120.597 646.808 120.688 647.213 120.688C647.65 120.688 648.018 120.592 648.317 120.4C648.626 120.208 648.866 119.931 649.037 119.568H650.941C650.792 120.048 650.552 120.485 650.221 120.88C649.901 121.275 649.49 121.595 648.989 121.84C648.498 122.075 647.917 122.192 647.245 122.192ZM645.085 117.28H649.293C649.282 116.693 649.074 116.229 648.669 115.888C648.264 115.547 647.778 115.376 647.213 115.376C646.701 115.376 646.237 115.531 645.821 115.84C645.416 116.149 645.17 116.629 645.085 117.28ZM652.215 122V114.064H653.975L654.007 115.36C654.274 114.891 654.631 114.528 655.079 114.272C655.538 114.005 656.066 113.872 656.663 113.872V115.776H656.167C655.442 115.776 654.903 115.957 654.551 116.32C654.199 116.683 654.023 117.248 654.023 118.016V122H652.215ZM661.062 122.192C660.262 122.192 659.563 122.016 658.966 121.664C658.369 121.301 657.899 120.811 657.558 120.192C657.227 119.563 657.062 118.843 657.062 118.032C657.062 117.189 657.227 116.459 657.558 115.84C657.899 115.221 658.369 114.741 658.966 114.4C659.574 114.048 660.278 113.872 661.078 113.872C661.857 113.872 662.534 114.043 663.11 114.384C663.686 114.715 664.139 115.173 664.47 115.76C664.801 116.347 664.966 117.013 664.966 117.76C664.966 117.909 664.961 118.043 664.95 118.16C664.95 118.277 664.939 118.405 664.918 118.544H658.886C658.918 118.96 659.025 119.333 659.206 119.664C659.387 119.984 659.633 120.235 659.942 120.416C660.262 120.597 660.625 120.688 661.03 120.688C661.467 120.688 661.835 120.592 662.134 120.4C662.443 120.208 662.683 119.931 662.854 119.568H664.758C664.609 120.048 664.369 120.485 664.038 120.88C663.718 121.275 663.307 121.595 662.806 121.84C662.315 122.075 661.734 122.192 661.062 122.192ZM658.902 117.28H663.11C663.099 116.693 662.891 116.229 662.486 115.888C662.081 115.547 661.595 115.376 661.03 115.376C660.518 115.376 660.054 115.531 659.638 115.84C659.233 116.149 658.987 116.629 658.902 117.28ZM669.52 122.192C668.73 122.192 668.053 122.005 667.488 121.632C666.933 121.248 666.501 120.741 666.192 120.112C665.893 119.483 665.744 118.779 665.744 118C665.744 117.232 665.893 116.539 666.192 115.92C666.501 115.291 666.938 114.795 667.504 114.432C668.069 114.059 668.741 113.872 669.52 113.872C670.074 113.872 670.592 113.989 671.072 114.224C671.552 114.448 671.941 114.779 672.24 115.216V110.8H674.064V122H672.288L672.24 120.8C671.984 121.227 671.616 121.568 671.136 121.824C670.656 122.069 670.117 122.192 669.52 122.192ZM669.92 120.608C670.4 120.608 670.81 120.496 671.152 120.272C671.493 120.048 671.76 119.744 671.952 119.36C672.144 118.965 672.24 118.523 672.24 118.032C672.24 117.467 672.128 116.992 671.904 116.608C671.69 116.224 671.402 115.936 671.04 115.744C670.688 115.552 670.309 115.456 669.904 115.456C669.456 115.456 669.056 115.568 668.704 115.792C668.362 116.005 668.09 116.304 667.888 116.688C667.696 117.061 667.6 117.504 667.6 118.016C667.6 118.517 667.701 118.965 667.904 119.36C668.106 119.744 668.378 120.048 668.72 120.272C669.072 120.496 669.472 120.608 669.92 120.608ZM683.625 122.192C682.612 122.192 681.785 121.989 681.145 121.584C680.516 121.179 680.052 120.64 679.753 119.968C679.465 119.285 679.321 118.549 679.321 117.76V110.8H681.129V117.776C681.129 118.725 681.353 119.424 681.801 119.872C682.26 120.32 682.878 120.544 683.657 120.544C684.436 120.544 685.049 120.32 685.497 119.872C685.956 119.424 686.185 118.725 686.185 117.776V110.8H687.993V117.76C687.993 118.603 687.865 119.307 687.609 119.872C687.353 120.437 687.006 120.891 686.569 121.232C686.142 121.573 685.668 121.819 685.145 121.968C684.633 122.117 684.126 122.192 683.625 122.192ZM692.777 122.192C692.169 122.192 691.604 122.085 691.081 121.872C690.569 121.648 690.148 121.333 689.817 120.928C689.497 120.523 689.316 120.048 689.273 119.504H691.097C691.161 119.877 691.342 120.181 691.641 120.416C691.95 120.64 692.324 120.752 692.761 120.752C693.156 120.752 693.481 120.667 693.737 120.496C694.004 120.325 694.137 120.091 694.137 119.792C694.137 119.536 694.046 119.339 693.865 119.2C693.684 119.051 693.46 118.939 693.193 118.864C692.926 118.779 692.649 118.704 692.361 118.64C691.86 118.523 691.39 118.379 690.953 118.208C690.526 118.037 690.18 117.797 689.913 117.488C689.646 117.179 689.513 116.773 689.513 116.272C689.513 115.771 689.652 115.344 689.929 114.992C690.206 114.629 690.574 114.352 691.033 114.16C691.502 113.968 692.025 113.872 692.601 113.872C693.476 113.872 694.201 114.091 694.777 114.528C695.364 114.965 695.689 115.605 695.753 116.448H694.025C693.982 116.085 693.828 115.808 693.561 115.616C693.305 115.424 692.969 115.328 692.553 115.328C692.19 115.328 691.886 115.397 691.641 115.536C691.406 115.675 691.289 115.899 691.289 116.208C691.289 116.421 691.374 116.597 691.545 116.736C691.726 116.875 691.95 116.992 692.217 117.088C692.494 117.173 692.766 117.248 693.033 117.312C693.577 117.44 694.062 117.589 694.489 117.76C694.916 117.931 695.252 118.171 695.497 118.48C695.753 118.789 695.886 119.211 695.897 119.744C695.897 120.256 695.758 120.693 695.481 121.056C695.204 121.419 694.83 121.701 694.361 121.904C693.892 122.096 693.364 122.192 692.777 122.192ZM700.799 122.192C699.999 122.192 699.301 122.016 698.703 121.664C698.106 121.301 697.637 120.811 697.295 120.192C696.965 119.563 696.799 118.843 696.799 118.032C696.799 117.189 696.965 116.459 697.295 115.84C697.637 115.221 698.106 114.741 698.703 114.4C699.311 114.048 700.015 113.872 700.815 113.872C701.594 113.872 702.271 114.043 702.847 114.384C703.423 114.715 703.877 115.173 704.207 115.76C704.538 116.347 704.703 117.013 704.703 117.76C704.703 117.909 704.698 118.043 704.687 118.16C704.687 118.277 704.677 118.405 704.655 118.544H698.623C698.655 118.96 698.762 119.333 698.943 119.664C699.125 119.984 699.37 120.235 699.679 120.416C699.999 120.597 700.362 120.688 700.767 120.688C701.205 120.688 701.573 120.592 701.871 120.4C702.181 120.208 702.421 119.931 702.591 119.568H704.495C704.346 120.048 704.106 120.485 703.775 120.88C703.455 121.275 703.045 121.595 702.543 121.84C702.053 122.075 701.471 122.192 700.799 122.192ZM698.639 117.28H702.847C702.837 116.693 702.629 116.229 702.223 115.888C701.818 115.547 701.333 115.376 700.767 115.376C700.255 115.376 699.791 115.531 699.375 115.84C698.97 116.149 698.725 116.629 698.639 117.28ZM705.769 122V114.064H707.529L707.561 115.36C707.828 114.891 708.185 114.528 708.633 114.272C709.092 114.005 709.62 113.872 710.217 113.872V115.776H709.721C708.996 115.776 708.457 115.957 708.105 116.32C707.753 116.683 707.577 117.248 707.577 118.016V122H705.769ZM714.291 122.192C713.683 122.192 713.118 122.085 712.595 121.872C712.083 121.648 711.662 121.333 711.331 120.928C711.011 120.523 710.83 120.048 710.787 119.504H712.611C712.675 119.877 712.857 120.181 713.155 120.416C713.465 120.64 713.838 120.752 714.275 120.752C714.67 120.752 714.995 120.667 715.251 120.496C715.518 120.325 715.651 120.091 715.651 119.792C715.651 119.536 715.561 119.339 715.379 119.2C715.198 119.051 714.974 118.939 714.707 118.864C714.441 118.779 714.163 118.704 713.875 118.64C713.374 118.523 712.905 118.379 712.467 118.208C712.041 118.037 711.694 117.797 711.427 117.488C711.161 117.179 711.027 116.773 711.027 116.272C711.027 115.771 711.166 115.344 711.443 114.992C711.721 114.629 712.089 114.352 712.547 114.16C713.017 113.968 713.539 113.872 714.115 113.872C714.99 113.872 715.715 114.091 716.291 114.528C716.878 114.965 717.203 115.605 717.267 116.448H715.539C715.497 116.085 715.342 115.808 715.075 115.616C714.819 115.424 714.483 115.328 714.067 115.328C713.705 115.328 713.401 115.397 713.155 115.536C712.921 115.675 712.803 115.899 712.803 116.208C712.803 116.421 712.889 116.597 713.059 116.736C713.241 116.875 713.465 116.992 713.731 117.088C714.009 117.173 714.281 117.248 714.547 117.312C715.091 117.44 715.577 117.589 716.003 117.76C716.43 117.931 716.766 118.171 717.011 118.48C717.267 118.789 717.401 119.211 717.411 119.744C717.411 120.256 717.273 120.693 716.995 121.056C716.718 121.419 716.345 121.701 715.875 121.904C715.406 122.096 714.878 122.192 714.291 122.192Z" fill="#999999"/>
<path d="M923.24 122L919.32 110.8H921.176L924.312 120.288L925.688 116.176L923.8 110.8H925.64L926.904 114.736L928.152 110.8H929.992L928.104 116.176L929.464 120.288L932.616 110.8H934.472L930.552 122H928.408L926.904 117.584L925.368 122H923.24ZM937.601 122.192C936.801 122.192 936.103 122.016 935.505 121.664C934.908 121.301 934.439 120.811 934.097 120.192C933.767 119.563 933.601 118.843 933.601 118.032C933.601 117.189 933.767 116.459 934.097 115.84C934.439 115.221 934.908 114.741 935.505 114.4C936.113 114.048 936.817 113.872 937.617 113.872C938.396 113.872 939.073 114.043 939.649 114.384C940.225 114.715 940.679 115.173 941.009 115.76C941.34 116.347 941.505 117.013 941.505 117.76C941.505 117.909 941.5 118.043 941.489 118.16C941.489 118.277 941.479 118.405 941.457 118.544H935.425C935.457 118.96 935.564 119.333 935.745 119.664C935.927 119.984 936.172 120.235 936.481 120.416C936.801 120.597 937.164 120.688 937.569 120.688C938.007 120.688 938.375 120.592 938.673 120.4C938.983 120.208 939.223 119.931 939.393 119.568H941.297C941.148 120.048 940.908 120.485 940.577 120.88C940.257 121.275 939.847 121.595 939.345 121.84C938.855 122.075 938.273 122.192 937.601 122.192ZM935.441 117.28H939.649C939.639 116.693 939.431 116.229 939.025 115.888C938.62 115.547 938.135 115.376 937.569 115.376C937.057 115.376 936.593 115.531 936.177 115.84C935.772 116.149 935.527 116.629 935.441 117.28ZM946.283 122.192C945.483 122.192 944.784 122.016 944.187 121.664C943.59 121.301 943.12 120.811 942.779 120.192C942.448 119.563 942.283 118.843 942.283 118.032C942.283 117.189 942.448 116.459 942.779 115.84C943.12 115.221 943.59 114.741 944.187 114.4C944.795 114.048 945.499 113.872 946.299 113.872C947.078 113.872 947.755 114.043 948.331 114.384C948.907 114.715 949.36 115.173 949.691 115.76C950.022 116.347 950.187 117.013 950.187 117.76C950.187 117.909 950.182 118.043 950.171 118.16C950.171 118.277 950.16 118.405 950.139 118.544H944.107C944.139 118.96 944.246 119.333 944.427 119.664C944.608 119.984 944.854 120.235 945.163 120.416C945.483 120.597 945.846 120.688 946.251 120.688C946.688 120.688 947.056 120.592 947.355 120.4C947.664 120.208 947.904 119.931 948.075 119.568H949.979C949.83 120.048 949.59 120.485 949.259 120.88C948.939 121.275 948.528 121.595 948.027 121.84C947.536 122.075 946.955 122.192 946.283 122.192ZM944.123 117.28H948.331C948.32 116.693 948.112 116.229 947.707 115.888C947.302 115.547 946.816 115.376 946.251 115.376C945.739 115.376 945.275 115.531 944.859 115.84C944.454 116.149 944.208 116.629 944.123 117.28ZM951.253 122V110.8H953.061V117.424L955.909 114.064H958.213L954.725 117.92L958.405 122H956.069L953.061 118.384V122H951.253ZM959.279 122V110.8H961.087V122H959.279ZM963.338 125.52L965.082 121.648L961.802 114.064H963.818L966.058 119.728L968.378 114.064H970.282L965.242 125.52H963.338ZM977.938 122L973.81 110.8H975.746L979.042 120.128L982.354 110.8H984.274L980.13 122H977.938ZM986.108 112.8C985.777 112.8 985.495 112.683 985.26 112.448C985.025 112.213 984.908 111.931 984.908 111.6C984.908 111.269 985.025 110.992 985.26 110.768C985.495 110.533 985.777 110.416 986.108 110.416C986.439 110.416 986.721 110.533 986.956 110.768C987.191 110.992 987.308 111.269 987.308 111.6C987.308 111.931 987.191 112.213 986.956 112.448C986.721 112.683 986.439 112.8 986.108 112.8ZM985.196 122V114.064H987.02V122H985.196ZM991.747 122.192C991.139 122.192 990.574 122.085 990.051 121.872C989.539 121.648 989.118 121.333 988.787 120.928C988.467 120.523 988.286 120.048 988.243 119.504H990.067C990.131 119.877 990.312 120.181 990.611 120.416C990.92 120.64 991.294 120.752 991.731 120.752C992.126 120.752 992.451 120.667 992.707 120.496C992.974 120.325 993.107 120.091 993.107 119.792C993.107 119.536 993.016 119.339 992.835 119.2C992.654 119.051 992.43 118.939 992.163 118.864C991.896 118.779 991.619 118.704 991.331 118.64C990.83 118.523 990.36 118.379 989.923 118.208C989.496 118.037 989.15 117.797 988.883 117.488C988.616 117.179 988.483 116.773 988.483 116.272C988.483 115.771 988.622 115.344 988.899 114.992C989.176 114.629 989.544 114.352 990.003 114.16C990.472 113.968 990.995 113.872 991.571 113.872C992.446 113.872 993.171 114.091 993.747 114.528C994.334 114.965 994.659 115.605 994.723 116.448H992.995C992.952 116.085 992.798 115.808 992.531 115.616C992.275 115.424 991.939 115.328 991.523 115.328C991.16 115.328 990.856 115.397 990.611 115.536C990.376 115.675 990.259 115.899 990.259 116.208C990.259 116.421 990.344 116.597 990.515 116.736C990.696 116.875 990.92 116.992 991.187 117.088C991.464 117.173 991.736 117.248 992.003 117.312C992.547 117.44 993.032 117.589 993.459 117.76C993.886 117.931 994.222 118.171 994.467 118.48C994.723 118.789 994.856 119.211 994.867 119.744C994.867 120.256 994.728 120.693 994.451 121.056C994.174 121.419 993.8 121.701 993.331 121.904C992.862 122.096 992.334 122.192 991.747 122.192ZM997.065 112.8C996.735 112.8 996.452 112.683 996.217 112.448C995.983 112.213 995.865 111.931 995.865 111.6C995.865 111.269 995.983 110.992 996.217 110.768C996.452 110.533 996.735 110.416 997.065 110.416C997.396 110.416 997.679 110.533 997.913 110.768C998.148 110.992 998.265 111.269 998.265 111.6C998.265 111.931 998.148 112.213 997.913 112.448C997.679 112.683 997.396 112.8 997.065 112.8ZM996.153 122V114.064H997.977V122H996.153ZM1002.64 122C1001.83 122 1001.21 121.803 1000.78 121.408C1000.36 121.013 1000.14 120.384 1000.14 119.52V115.584H999.009V114.064H1000.14V112.144H1001.97V114.064H1003.9V115.584H1001.97V119.536C1001.97 119.899 1002.05 120.149 1002.22 120.288C1002.4 120.416 1002.65 120.48 1002.99 120.48H1003.9V122H1002.64ZM1008.7 122.192C1007.92 122.192 1007.22 122.021 1006.6 121.68C1005.98 121.339 1005.49 120.859 1005.13 120.24C1004.78 119.611 1004.6 118.875 1004.6 118.032C1004.6 117.168 1004.79 116.427 1005.16 115.808C1005.54 115.189 1006.04 114.715 1006.67 114.384C1007.3 114.043 1007.99 113.872 1008.76 113.872C1009.54 113.872 1010.24 114.043 1010.86 114.384C1011.49 114.715 1011.98 115.189 1012.35 115.808C1012.72 116.427 1012.91 117.168 1012.91 118.032C1012.91 118.832 1012.72 119.547 1012.36 120.176C1012.01 120.805 1011.51 121.301 1010.87 121.664C1010.24 122.016 1009.52 122.192 1008.7 122.192ZM1008.71 120.624C1009.17 120.624 1009.57 120.512 1009.91 120.288C1010.27 120.053 1010.54 119.739 1010.75 119.344C1010.95 118.949 1011.05 118.501 1011.05 118C1011.05 117.477 1010.95 117.024 1010.75 116.64C1010.54 116.256 1010.27 115.963 1009.91 115.76C1009.57 115.547 1009.18 115.44 1008.73 115.44C1008.26 115.44 1007.85 115.552 1007.5 115.776C1007.16 116 1006.9 116.309 1006.71 116.704C1006.53 117.088 1006.44 117.531 1006.44 118.032C1006.44 118.576 1006.54 119.045 1006.75 119.44C1006.96 119.824 1007.24 120.117 1007.58 120.32C1007.93 120.523 1008.31 120.624 1008.71 120.624ZM1014.07 122V114.064H1015.83L1015.86 115.36C1016.13 114.891 1016.49 114.528 1016.94 114.272C1017.39 114.005 1017.92 113.872 1018.52 113.872V115.776H1018.02C1017.3 115.776 1016.76 115.957 1016.41 116.32C1016.06 116.683 1015.88 117.248 1015.88 118.016V122H1014.07ZM1022.59 122.192C1021.99 122.192 1021.42 122.085 1020.9 121.872C1020.39 121.648 1019.96 121.333 1019.63 120.928C1019.31 120.523 1019.13 120.048 1019.09 119.504H1020.91C1020.98 119.877 1021.16 120.181 1021.46 120.416C1021.77 120.64 1022.14 120.752 1022.58 120.752C1022.97 120.752 1023.3 120.667 1023.55 120.496C1023.82 120.325 1023.95 120.091 1023.95 119.792C1023.95 119.536 1023.86 119.339 1023.68 119.2C1023.5 119.051 1023.28 118.939 1023.01 118.864C1022.74 118.779 1022.47 118.704 1022.18 118.64C1021.68 118.523 1021.21 118.379 1020.77 118.208C1020.34 118.037 1020 117.797 1019.73 117.488C1019.46 117.179 1019.33 116.773 1019.33 116.272C1019.33 115.771 1019.47 115.344 1019.75 114.992C1020.02 114.629 1020.39 114.352 1020.85 114.16C1021.32 113.968 1021.84 113.872 1022.42 113.872C1023.29 113.872 1024.02 114.091 1024.59 114.528C1025.18 114.965 1025.51 115.605 1025.57 116.448H1023.84C1023.8 116.085 1023.64 115.808 1023.38 115.616C1023.12 115.424 1022.79 115.328 1022.37 115.328C1022.01 115.328 1021.7 115.397 1021.46 115.536C1021.22 115.675 1021.11 115.899 1021.11 116.208C1021.11 116.421 1021.19 116.597 1021.36 116.736C1021.54 116.875 1021.77 116.992 1022.03 117.088C1022.31 117.173 1022.58 117.248 1022.85 117.312C1023.39 117.44 1023.88 117.589 1024.31 117.76C1024.73 117.931 1025.07 118.171 1025.31 118.48C1025.57 118.789 1025.7 119.211 1025.71 119.744C1025.71 120.256 1025.58 120.693 1025.3 121.056C1025.02 121.419 1024.65 121.701 1024.18 121.904C1023.71 122.096 1023.18 122.192 1022.59 122.192Z" fill="#999999"/>
<path d="M298.312 90V83.472H306.472V64.752L298.696 66.24V60.288L309.592 56.4H313.576V83.472H321.064V90H298.312ZM335.347 90.576C332.275 90.576 329.811 89.808 327.955 88.272C326.099 86.736 324.755 84.656 323.923 82.032C323.091 79.408 322.675 76.464 322.675 73.2C322.675 69.936 323.091 66.992 323.923 64.368C324.755 61.744 326.099 59.664 327.955 58.128C329.811 56.592 332.275 55.824 335.347 55.824C338.419 55.824 340.867 56.576 342.691 58.08C344.547 59.584 345.891 61.648 346.723 64.272C347.555 66.896 347.971 69.872 347.971 73.2C347.971 76.528 347.555 79.504 346.723 82.128C345.891 84.752 344.547 86.816 342.691 88.32C340.867 89.824 338.419 90.576 335.347 90.576ZM335.347 83.856C337.075 83.856 338.339 82.912 339.139 81.024C339.939 79.104 340.339 76.496 340.339 73.2C340.339 69.904 339.939 67.312 339.139 65.424C338.339 63.504 337.075 62.544 335.347 62.544C333.619 62.544 332.339 63.504 331.507 65.424C330.707 67.312 330.307 69.904 330.307 73.2C330.307 76.496 330.707 79.104 331.507 81.024C332.339 82.912 333.619 83.856 335.347 83.856ZM362.207 90.576C359.135 90.576 356.671 89.808 354.815 88.272C352.959 86.736 351.615 84.656 350.783 82.032C349.951 79.408 349.535 76.464 349.535 73.2C349.535 69.936 349.951 66.992 350.783 64.368C351.615 61.744 352.959 59.664 354.815 58.128C356.671 56.592 359.135 55.824 362.207 55.824C365.279 55.824 367.727 56.576 369.551 58.08C371.407 59.584 372.751 61.648 373.583 64.272C374.415 66.896 374.831 69.872 374.831 73.2C374.831 76.528 374.415 79.504 373.583 82.128C372.751 84.752 371.407 86.816 369.551 88.32C367.727 89.824 365.279 90.576 362.207 90.576ZM362.207 83.856C363.935 83.856 365.199 82.912 365.999 81.024C366.799 79.104 367.199 76.496 367.199 73.2C367.199 69.904 366.799 67.312 365.999 65.424C365.199 63.504 363.935 62.544 362.207 62.544C360.479 62.544 359.199 63.504 358.367 65.424C357.567 67.312 357.167 69.904 357.167 73.2C357.167 76.496 357.567 79.104 358.367 81.024C359.199 82.912 360.479 83.856 362.207 83.856ZM389.066 90.576C385.994 90.576 383.53 89.808 381.674 88.272C379.818 86.736 378.474 84.656 377.642 82.032C376.81 79.408 376.394 76.464 376.394 73.2C376.394 69.936 376.81 66.992 377.642 64.368C378.474 61.744 379.818 59.664 381.674 58.128C383.53 56.592 385.994 55.824 389.066 55.824C392.138 55.824 394.586 56.576 396.41 58.08C398.266 59.584 399.61 61.648 400.442 64.272C401.274 66.896 401.69 69.872 401.69 73.2C401.69 76.528 401.274 79.504 400.442 82.128C399.61 84.752 398.266 86.816 396.41 88.32C394.586 89.824 392.138 90.576 389.066 90.576ZM389.066 83.856C390.794 83.856 392.058 82.912 392.858 81.024C393.658 79.104 394.058 76.496 394.058 73.2C394.058 69.904 393.658 67.312 392.858 65.424C392.058 63.504 390.794 62.544 389.066 62.544C387.338 62.544 386.058 63.504 385.226 65.424C384.426 67.312 384.026 69.904 384.026 73.2C384.026 76.496 384.426 79.104 385.226 81.024C386.058 82.912 387.338 83.856 389.066 83.856ZM413.718 87.888V79.296H404.79V73.008H413.718V64.368H420.054V73.008H428.885V79.296H420.054V87.888H413.718Z" fill="#1D2F6F"/>
<path d="M555.312 90V83.472H563.472V64.752L555.696 66.24V60.288L566.592 56.4H570.576V83.472H578.064V90H555.312ZM579.915 95.472L582.603 82.608H589.755L584.763 95.472H579.915ZM605.051 90.576C601.979 90.576 599.515 89.808 597.659 88.272C595.803 86.736 594.459 84.656 593.627 82.032C592.795 79.408 592.379 76.464 592.379 73.2C592.379 69.936 592.795 66.992 593.627 64.368C594.459 61.744 595.803 59.664 597.659 58.128C599.515 56.592 601.979 55.824 605.051 55.824C608.123 55.824 610.571 56.576 612.395 58.08C614.251 59.584 615.595 61.648 616.427 64.272C617.259 66.896 617.675 69.872 617.675 73.2C617.675 76.528 617.259 79.504 616.427 82.128C615.595 84.752 614.251 86.816 612.395 88.32C610.571 89.824 608.123 90.576 605.051 90.576ZM605.051 83.856C606.779 83.856 608.043 82.912 608.843 81.024C609.643 79.104 610.043 76.496 610.043 73.2C610.043 69.904 609.643 67.312 608.843 65.424C608.043 63.504 606.779 62.544 605.051 62.544C603.323 62.544 602.043 63.504 601.211 65.424C600.411 67.312 600.011 69.904 600.011 73.2C600.011 76.496 600.411 79.104 601.211 81.024C602.043 82.912 603.323 83.856 605.051 83.856ZM631.91 90.576C628.838 90.576 626.374 89.808 624.518 88.272C622.662 86.736 621.318 84.656 620.486 82.032C619.654 79.408 619.238 76.464 619.238 73.2C619.238 69.936 619.654 66.992 620.486 64.368C621.318 61.744 622.662 59.664 624.518 58.128C626.374 56.592 628.838 55.824 631.91 55.824C634.982 55.824 637.43 56.576 639.254 58.08C641.11 59.584 642.454 61.648 643.286 64.272C644.118 66.896 644.534 69.872 644.534 73.2C644.534 76.528 644.118 79.504 643.286 82.128C642.454 84.752 641.11 86.816 639.254 88.32C637.43 89.824 634.982 90.576 631.91 90.576ZM631.91 83.856C633.638 83.856 634.902 82.912 635.702 81.024C636.502 79.104 636.902 76.496 636.902 73.2C636.902 69.904 636.502 67.312 635.702 65.424C634.902 63.504 633.638 62.544 631.91 62.544C630.182 62.544 628.902 63.504 628.07 65.424C627.27 67.312 626.87 69.904 626.87 73.2C626.87 76.496 627.27 79.104 628.07 81.024C628.902 82.912 630.182 83.856 631.91 83.856ZM658.769 90.576C655.697 90.576 653.233 89.808 651.377 88.272C649.521 86.736 648.177 84.656 647.345 82.032C646.513 79.408 646.097 76.464 646.097 73.2C646.097 69.936 646.513 66.992 647.345 64.368C648.177 61.744 649.521 59.664 651.377 58.128C653.233 56.592 655.697 55.824 658.769 55.824C661.841 55.824 664.289 56.576 666.113 58.08C667.969 59.584 669.313 61.648 670.145 64.272C670.977 66.896 671.393 69.872 671.393 73.2C671.393 76.528 670.977 79.504 670.145 82.128C669.313 84.752 667.969 86.816 666.113 88.32C664.289 89.824 661.841 90.576 658.769 90.576ZM658.769 83.856C660.497 83.856 661.761 82.912 662.561 81.024C663.361 79.104 663.761 76.496 663.761 73.2C663.761 69.904 663.361 67.312 662.561 65.424C661.761 63.504 660.497 62.544 658.769 62.544C657.041 62.544 655.761 63.504 654.929 65.424C654.129 67.312 653.729 69.904 653.729 73.2C653.729 76.496 654.129 79.104 654.929 81.024C655.761 82.912 657.041 83.856 658.769 83.856ZM673.197 95.472L675.885 82.608H683.037L678.045 95.472H673.197ZM698.332 90.576C695.26 90.576 692.796 89.808 690.94 88.272C689.084 86.736 687.74 84.656 686.908 82.032C686.076 79.408 685.66 76.464 685.66 73.2C685.66 69.936 686.076 66.992 686.908 64.368C687.74 61.744 689.084 59.664 690.94 58.128C692.796 56.592 695.26 55.824 698.332 55.824C701.404 55.824 703.852 56.576 705.676 58.08C707.532 59.584 708.876 61.648 709.708 64.272C710.54 66.896 710.956 69.872 710.956 73.2C710.956 76.528 710.54 79.504 709.708 82.128C708.876 84.752 707.532 86.816 705.676 88.32C703.852 89.824 701.404 90.576 698.332 90.576ZM698.332 83.856C700.06 83.856 701.324 82.912 702.124 81.024C702.924 79.104 703.324 76.496 703.324 73.2C703.324 69.904 702.924 67.312 702.124 65.424C701.324 63.504 700.06 62.544 698.332 62.544C696.604 62.544 695.324 63.504 694.492 65.424C693.692 67.312 693.292 69.904 693.292 73.2C693.292 76.496 693.692 79.104 694.492 81.024C695.324 82.912 696.604 83.856 698.332 83.856ZM725.191 90.576C722.119 90.576 719.655 89.808 717.799 88.272C715.943 86.736 714.599 84.656 713.767 82.032C712.935 79.408 712.519 76.464 712.519 73.2C712.519 69.936 712.935 66.992 713.767 64.368C714.599 61.744 715.943 59.664 717.799 58.128C719.655 56.592 722.119 55.824 725.191 55.824C728.263 55.824 730.711 56.576 732.535 58.08C734.391 59.584 735.735 61.648 736.567 64.272C737.399 66.896 737.815 69.872 737.815 73.2C737.815 76.528 737.399 79.504 736.567 82.128C735.735 84.752 734.391 86.816 732.535 88.32C730.711 89.824 728.263 90.576 725.191 90.576ZM725.191 83.856C726.919 83.856 728.183 82.912 728.983 81.024C729.783 79.104 730.183 76.496 730.183 73.2C730.183 69.904 729.783 67.312 728.983 65.424C728.183 63.504 726.919 62.544 725.191 62.544C723.463 62.544 722.183 63.504 721.351 65.424C720.551 67.312 720.151 69.904 720.151 73.2C720.151 76.496 720.551 79.104 721.351 81.024C722.183 82.912 723.463 83.856 725.191 83.856ZM752.051 90.576C748.979 90.576 746.515 89.808 744.659 88.272C742.803 86.736 741.459 84.656 740.627 82.032C739.795 79.408 739.379 76.464 739.379 73.2C739.379 69.936 739.795 66.992 740.627 64.368C741.459 61.744 742.803 59.664 744.659 58.128C746.515 56.592 748.979 55.824 752.051 55.824C755.123 55.824 757.571 56.576 759.395 58.08C761.251 59.584 762.595 61.648 763.427 64.272C764.259 66.896 764.675 69.872 764.675 73.2C764.675 76.528 764.259 79.504 763.427 82.128C762.595 84.752 761.251 86.816 759.395 88.32C757.571 89.824 755.123 90.576 752.051 90.576ZM752.051 83.856C753.779 83.856 755.043 82.912 755.843 81.024C756.643 79.104 757.043 76.496 757.043 73.2C757.043 69.904 756.643 67.312 755.843 65.424C755.043 63.504 753.779 62.544 752.051 62.544C750.323 62.544 749.043 63.504 748.211 65.424C747.411 67.312 747.011 69.904 747.011 73.2C747.011 76.496 747.411 79.104 748.211 81.024C749.043 82.912 750.323 83.856 752.051 83.856Z" fill="#1D2F6F"/>
<path d="M901.648 90V84.384H887.056V78.336L898.096 56.4H905.488L895.024 77.904H902.176V69.696H909.232V77.904H912.448V84.384H909.232V90H901.648ZM926.395 90.576C924.219 90.576 922.203 90.176 920.347 89.376C918.523 88.544 917.051 87.376 915.931 85.872C914.843 84.368 914.299 82.576 914.299 80.496C914.299 78.576 914.699 76.864 915.499 75.36C916.299 73.856 917.579 72.688 919.339 71.856C918.059 71.088 917.019 70.112 916.219 68.928C915.451 67.712 915.067 66.352 915.067 64.848C915.067 62.896 915.579 61.248 916.603 59.904C917.659 58.56 919.035 57.552 920.731 56.88C922.459 56.176 924.347 55.824 926.395 55.824C928.379 55.824 930.219 56.16 931.915 56.832C933.611 57.472 934.971 58.464 935.995 59.808C937.051 61.152 937.579 62.832 937.579 64.848C937.579 66.416 937.179 67.824 936.379 69.072C935.579 70.288 934.571 71.216 933.355 71.856C935.115 72.656 936.395 73.824 937.195 75.36C937.995 76.896 938.395 78.608 938.395 80.496C938.395 82.192 938.043 83.68 937.339 84.96C936.667 86.208 935.755 87.248 934.603 88.08C933.451 88.912 932.155 89.536 930.715 89.952C929.307 90.368 927.867 90.576 926.395 90.576ZM926.443 84.384C927.787 84.384 928.891 84.016 929.755 83.28C930.619 82.512 931.051 81.344 931.051 79.776C931.051 78.304 930.667 77.168 929.899 76.368C929.163 75.536 928.011 75.12 926.443 75.12C924.875 75.12 923.691 75.536 922.891 76.368C922.091 77.168 921.691 78.304 921.691 79.776C921.691 81.088 922.059 82.192 922.795 83.088C923.563 83.952 924.779 84.384 926.443 84.384ZM926.395 69.792C927.611 69.792 928.539 69.456 929.179 68.784C929.851 68.112 930.187 67.136 930.187 65.856C930.187 64.64 929.883 63.664 929.275 62.928C928.667 62.192 927.707 61.824 926.395 61.824C925.019 61.824 924.027 62.192 923.419 62.928C922.811 63.632 922.507 64.608 922.507 65.856C922.507 67.136 922.859 68.112 923.563 68.784C924.267 69.456 925.211 69.792 926.395 69.792ZM953.255 90.576C951.079 90.576 949.063 90.176 947.207 89.376C945.383 88.544 943.911 87.376 942.791 85.872C941.703 84.368 941.159 82.576 941.159 80.496C941.159 78.576 941.559 76.864 942.359 75.36C943.159 73.856 944.439 72.688 946.199 71.856C944.919 71.088 943.879 70.112 943.079 68.928C942.311 67.712 941.927 66.352 941.927 64.848C941.927 62.896 942.439 61.248 943.463 59.904C944.519 58.56 945.895 57.552 947.591 56.88C949.319 56.176 951.207 55.824 953.255 55.824C955.239 55.824 957.079 56.16 958.775 56.832C960.471 57.472 961.831 58.464 962.855 59.808C963.911 61.152 964.439 62.832 964.439 64.848C964.439 66.416 964.039 67.824 963.239 69.072C962.439 70.288 961.431 71.216 960.215 71.856C961.975 72.656 963.255 73.824 964.055 75.36C964.855 76.896 965.255 78.608 965.255 80.496C965.255 82.192 964.903 83.68 964.199 84.96C963.527 86.208 962.615 87.248 961.463 88.08C960.311 88.912 959.015 89.536 957.575 89.952C956.167 90.368 954.727 90.576 953.255 90.576ZM953.303 84.384C954.647 84.384 955.751 84.016 956.615 83.28C957.479 82.512 957.911 81.344 957.911 79.776C957.911 78.304 957.527 77.168 956.759 76.368C956.023 75.536 954.871 75.12 953.303 75.12C951.735 75.12 950.551 75.536 949.751 76.368C948.951 77.168 948.551 78.304 948.551 79.776C948.551 81.088 948.919 82.192 949.655 83.088C950.423 83.952 951.639 84.384 953.303 84.384ZM953.255 69.792C954.471 69.792 955.399 69.456 956.039 68.784C956.711 68.112 957.047 67.136 957.047 65.856C957.047 64.64 956.743 63.664 956.135 62.928C955.527 62.192 954.567 61.824 953.255 61.824C951.879 61.824 950.887 62.192 950.279 62.928C949.671 63.632 949.367 64.608 949.367 65.856C949.367 67.136 949.719 68.112 950.423 68.784C951.127 69.456 952.071 69.792 953.255 69.792ZM967.634 95.472L970.322 82.608H977.474L972.482 95.472H967.634ZM992.769 90.576C989.697 90.576 987.233 89.808 985.377 88.272C983.521 86.736 982.177 84.656 981.345 82.032C980.513 79.408 980.097 76.464 980.097 73.2C980.097 69.936 980.513 66.992 981.345 64.368C982.177 61.744 983.521 59.664 985.377 58.128C987.233 56.592 989.697 55.824 992.769 55.824C995.841 55.824 998.289 56.576 1000.11 58.08C1001.97 59.584 1003.31 61.648 1004.15 64.272C1004.98 66.896 1005.39 69.872 1005.39 73.2C1005.39 76.528 1004.98 79.504 1004.15 82.128C1003.31 84.752 1001.97 86.816 1000.11 88.32C998.289 89.824 995.841 90.576 992.769 90.576ZM992.769 83.856C994.497 83.856 995.761 82.912 996.561 81.024C997.361 79.104 997.761 76.496 997.761 73.2C997.761 69.904 997.361 67.312 996.561 65.424C995.761 63.504 994.497 62.544 992.769 62.544C991.041 62.544 989.761 63.504 988.929 65.424C988.129 67.312 987.729 69.904 987.729 73.2C987.729 76.496 988.129 79.104 988.929 81.024C989.761 82.912 991.041 83.856 992.769 83.856ZM1019.63 90.576C1016.56 90.576 1014.09 89.808 1012.24 88.272C1010.38 86.736 1009.04 84.656 1008.2 82.032C1007.37 79.408 1006.96 76.464 1006.96 73.2C1006.96 69.936 1007.37 66.992 1008.2 64.368C1009.04 61.744 1010.38 59.664 1012.24 58.128C1014.09 56.592 1016.56 55.824 1019.63 55.824C1022.7 55.824 1025.15 56.576 1026.97 58.08C1028.83 59.584 1030.17 61.648 1031 64.272C1031.84 66.896 1032.25 69.872 1032.25 73.2C1032.25 76.528 1031.84 79.504 1031 82.128C1030.17 84.752 1028.83 86.816 1026.97 88.32C1025.15 89.824 1022.7 90.576 1019.63 90.576ZM1019.63 83.856C1021.36 83.856 1022.62 82.912 1023.42 81.024C1024.22 79.104 1024.62 76.496 1024.62 73.2C1024.62 69.904 1024.22 67.312 1023.42 65.424C1022.62 63.504 1021.36 62.544 1019.63 62.544C1017.9 62.544 1016.62 63.504 1015.79 65.424C1014.99 67.312 1014.59 69.904 1014.59 73.2C1014.59 76.496 1014.99 79.104 1015.79 81.024C1016.62 82.912 1017.9 83.856 1019.63 83.856ZM1046.49 90.576C1043.42 90.576 1040.95 89.808 1039.1 88.272C1037.24 86.736 1035.9 84.656 1035.06 82.032C1034.23 79.408 1033.82 76.464 1033.82 73.2C1033.82 69.936 1034.23 66.992 1035.06 64.368C1035.9 61.744 1037.24 59.664 1039.1 58.128C1040.95 56.592 1043.42 55.824 1046.49 55.824C1049.56 55.824 1052.01 56.576 1053.83 58.08C1055.69 59.584 1057.03 61.648 1057.86 64.272C1058.7 66.896 1059.11 69.872 1059.11 73.2C1059.11 76.528 1058.7 79.504 1057.86 82.128C1057.03 84.752 1055.69 86.816 1053.83 88.32C1052.01 89.824 1049.56 90.576 1046.49 90.576ZM1046.49 83.856C1048.22 83.856 1049.48 82.912 1050.28 81.024C1051.08 79.104 1051.48 76.496 1051.48 73.2C1051.48 69.904 1051.08 67.312 1050.28 65.424C1049.48 63.504 1048.22 62.544 1046.49 62.544C1044.76 62.544 1043.48 63.504 1042.65 65.424C1041.85 67.312 1041.45 69.904 1041.45 73.2C1041.45 76.496 1041.85 79.104 1042.65 81.024C1043.48 82.912 1044.76 83.856 1046.49 83.856Z" fill="#1D2F6F"/>
<g opacity="0.1" clip-path="url(#clip0_583_3875)">
<path d="M893 84.1148C900.367 84.1148 906.36 78.1214 906.36 70.7545C906.36 63.3875 900.367 57.3943 893 57.3943C885.633 57.3943 879.64 63.3877 879.64 70.7545C879.64 78.1214 885.633 84.1148 893 84.1148ZM893 63.8941C896.783 63.8941 899.86 66.9715 899.86 70.7543C899.86 74.5371 896.783 77.6146 893 77.6146C889.217 77.6146 886.14 74.5371 886.14 70.7543C886.14 66.9715 889.217 63.8941 893 63.8941ZM867.004 105.407V113.356C867.004 115.151 868.459 116.606 870.254 116.606H915.746C917.541 116.606 918.996 115.151 918.996 113.356V105.407C918.996 96.5905 912.677 89.1848 903.97 87.7983C900.404 87.2305 896.713 86.9427 893 86.9427C889.287 86.9427 885.596 87.2305 882.03 87.7983C873.323 89.1848 867.004 96.5905 867.004 105.407ZM873.504 105.407C873.504 99.8044 877.52 95.0984 883.052 94.2172C886.281 93.7033 889.628 93.4427 893 93.4427C896.372 93.4427 899.719 93.7033 902.948 94.2172C908.481 95.0984 912.497 99.8044 912.497 105.407V110.106H873.504V105.407ZM945 87C945 100.89 939.591 113.948 929.77 123.77C919.948 133.591 906.89 139 893 139C879.081 139 866.008 133.576 856.188 123.727C846.394 113.904 841 100.861 841 87C841 85.205 842.455 83.75 844.25 83.75C846.045 83.75 847.5 85.205 847.5 87C847.5 112.089 867.911 132.5 893 132.5C918.089 132.5 938.5 112.089 938.5 87C938.5 61.9112 918.089 41.5 893 41.5C879.835 41.5 867.696 47.0059 859.157 56.5568L859.873 56.3267C861.582 55.7785 863.412 56.7169 863.962 58.426C864.511 60.1347 863.571 61.9655 861.863 62.5149L851.737 65.7706C851.412 65.875 851.076 65.9266 850.742 65.9266C850.177 65.9266 849.616 65.7793 849.117 65.4911C848.322 65.0322 847.759 64.2589 847.565 63.3619L845.322 52.9646C844.943 51.21 846.059 49.481 847.813 49.1024C849.567 48.7219 851.297 49.8391 851.676 51.5939L852.326 54.6079C856.374 49.5344 861.351 45.2267 866.986 41.9654C874.859 37.4085 883.854 35 893 35C906.89 35 919.948 40.409 929.77 50.2303C939.591 60.0518 945 73.1103 945 87Z" fill="#999999" fill-opacity="0.6"/>
</g>
<defs>
<clipPath id="clip0_583_3875">
<rect width="104" height="104" fill="white" transform="translate(841 35)"/>
</clipPath>
</defs>
</svg>
