<svg width="68" height="75" viewBox="0 0 68 75" fill="none" xmlns="http://www.w3.org/2000/svg">
<path d="M59.9802 66.6012H66.875V42.1649H30.9675V66.6012H49.7255H49.7268V67.7262C49.9603 67.726 50.1915 67.7718 50.4072 67.8612C50.6229 67.9506 50.8188 68.0818 50.9836 68.2471L59.9802 66.6012ZM59.9802 66.6012C59.2106 66.6012 58.4728 66.907 57.9287 67.4511C57.3845 67.9952 57.0788 68.7332 57.0788 69.5028V71.8574L51.7386 67.4118L59.9802 66.6012ZM25.1652 40.567V58.2369H14.7462V43.196C14.7489 42.8147 14.6764 42.4366 14.5328 42.0834C14.3886 41.7283 14.1754 41.4054 13.9056 41.1332C13.6359 40.861 13.3149 40.6449 12.9611 40.4975C12.6074 40.35 12.228 40.2741 11.8448 40.2741C11.4615 40.2741 11.0821 40.35 10.7284 40.4975C10.3746 40.6449 10.0536 40.861 9.78387 41.1332L10.5829 41.9251L9.78386 41.1332C9.51411 41.4054 9.30094 41.7283 9.15667 42.0834C9.01312 42.4366 8.94063 42.8147 8.9433 43.196V58.2369H2.64659C2.37626 58.2351 2.11747 58.1269 1.92625 57.9357L1.13314 58.7289L1.92625 57.9357C1.7351 57.7446 1.6269 57.4859 1.625 57.2156V40.4572C1.63688 36.9835 3.02206 33.6554 5.47838 31.1991C7.93473 28.7428 11.2628 27.3576 14.7366 27.3457H35.9207C38.9209 27.3556 41.8277 28.3898 44.16 30.277C46.1248 31.8669 47.5826 33.9819 48.3732 36.362H29.37H29.3689C28.2543 36.3632 27.1857 36.8064 26.3976 37.5946C25.6095 38.3827 25.1663 39.4513 25.1652 40.5659V40.567ZM32.0506 4.65963L32.0516 4.66068C32.9354 5.54214 33.6363 6.58957 34.1139 7.74276C34.5916 8.89595 34.8366 10.1322 34.835 11.3804V11.3819C34.835 13.5813 34.0723 15.7128 32.677 17.413C31.2817 19.1132 29.34 20.277 27.1828 20.7061C25.0256 21.1352 22.7863 20.803 20.8466 19.7662C18.9068 18.7293 17.3866 17.052 16.5449 15.0199C15.7032 12.9879 15.5921 10.7268 16.2306 8.62209C16.8691 6.51734 18.2177 4.69908 20.0465 3.47715C21.8753 2.25521 24.0712 1.70519 26.2601 1.92081C28.449 2.13643 30.4954 3.10434 32.0506 4.65963Z" stroke="black" stroke-width="2.25"/>
<path d="M57.1515 49.8484C56.6874 49.3837 55.9337 49.384 55.469 49.8484L47.8968 57.4209L44.5313 54.0554C44.0666 53.5907 43.3133 53.5907 42.8485 54.0554C42.3838 54.5202 42.3838 55.2735 42.8485 55.7382L47.0553 59.9449C47.2875 60.1771 47.592 60.2935 47.8965 60.2935C48.201 60.2935 48.5058 60.1774 48.738 59.9449L57.1515 51.5311C57.6162 51.0667 57.6162 50.3131 57.1515 49.8484Z" fill="#151515"/>
</svg>
