<svg width="20" height="19" viewBox="0 0 20 19" fill="none" xmlns="http://www.w3.org/2000/svg">
<path d="M7.27658 13.7866L5.71408 12.2241C5.63417 12.1422 5.52182 12.1004 5.40782 12.11C5.29459 12.1182 5.19048 12.1752 5.12265 12.2663L0.82816 18.1256C0.698705 18.2982 0.733678 18.543 0.906272 18.6725C1.04518 18.7766 1.23612 18.7766 1.37502 18.6725L7.23436 14.3756C7.40838 14.2482 7.44614 14.0037 7.31866 13.8297C7.30683 13.8136 7.29383 13.7984 7.2797 13.7842L7.27658 13.7866Z" fill="#B4B6B7"/>
<path d="M12.3555 11.0521L8.44927 7.14594C7.79211 6.63431 6.97334 6.37514 6.14146 6.41546C5.0525 6.37738 3.99452 6.78178 3.20867 7.53654C2.57429 8.17092 2.63991 9.15137 3.40397 10.4514C4.12555 11.5828 4.97776 12.6254 5.94301 13.5576C7.49691 15.1107 9.45861 16.7248 10.8883 16.7248C11.2912 16.735 11.6805 16.5783 11.9641 16.2919C13.5906 14.6662 13.1852 11.8826 12.3555 11.0521Z" fill="#1D2F6F"/>
<path d="M15.4813 7.9271L11.5751 4.02086C11.4226 3.86837 11.1753 3.86837 11.0228 4.02086L7.89778 7.14583C7.38685 7.65677 7.42903 8.78645 9.06965 10.4325C10.1407 11.5036 10.9946 11.8934 11.6009 11.8934C11.8815 11.9034 12.154 11.7991 12.3563 11.6044L15.4813 8.47942C15.6338 8.32689 15.6338 8.07963 15.4813 7.9271Z" fill="#1D2F6F"/>
<path d="M19.4703 6.88268C19.4099 6.7366 19.2674 6.64131 19.1094 6.64127C18.2625 6.64127 16.4031 5.72564 15.0891 4.41161C13.7751 3.09758 12.8594 1.23896 12.8594 0.391331C12.8598 0.175598 12.6852 0.000403436 12.4695 6.06137e-07C12.3655 -0.000182498 12.2657 0.0411259 12.1922 0.11477C10.5969 1.71086 10.0985 4.4327 12.5829 6.91706C13.528 7.96739 14.8584 8.59002 16.2704 8.64282C17.4448 8.62935 18.5656 8.14895 19.3852 7.30766C19.4968 7.19622 19.5303 7.02857 19.4703 6.88268Z" fill="#1D2F6F"/>
<path d="M17.0402 2.45854C15.3855 0.804634 13.8895 0.000732422 12.4668 0.000732422C12.2511 0.000732422 12.0762 0.175634 12.0762 0.391367C12.0762 1.55778 13.1793 3.60932 14.534 4.96477C15.8887 6.32021 17.9418 7.42258 19.1074 7.42258C19.3231 7.42258 19.498 7.24768 19.498 7.03194C19.498 5.60852 18.6941 4.11242 17.0402 2.45854Z" fill="#1D2F6F"/>
</svg>
