<svg width="180" height="111" viewBox="0 0 180 111" fill="none" xmlns="http://www.w3.org/2000/svg">
<circle cx="90" cy="32" r="32" fill="#D9D9D9" fill-opacity="0.2"/>
<path d="M100.782 20.8696C100.974 20.8696 101.13 20.7139 101.13 20.5218C101.13 20.3297 100.974 20.174 100.782 20.174C100.59 20.174 100.435 20.3297 100.435 20.5218C100.435 20.7139 100.59 20.8696 100.782 20.8696Z" fill="#999999"/>
<path d="M99.0433 20.8696C99.4275 20.8696 99.739 20.7139 99.739 20.5218C99.739 20.3297 99.4275 20.174 99.0433 20.174C98.6591 20.174 98.3477 20.3297 98.3477 20.5218C98.3477 20.7139 98.6591 20.8696 99.0433 20.8696Z" fill="#999999"/>
<path d="M97.3039 20.8696C97.496 20.8696 97.6517 20.7139 97.6517 20.5218C97.6517 20.3297 97.496 20.174 97.3039 20.174C97.1118 20.174 96.9561 20.3297 96.9561 20.5218C96.9561 20.7139 97.1118 20.8696 97.3039 20.8696Z" fill="#999999"/>
<path d="M102.391 18.087H77.6087C77.2051 18.087 76.818 18.2474 76.5326 18.5327C76.2472 18.8181 76.0869 19.2052 76.0869 19.6088V44.3914C76.0869 44.795 76.2472 45.182 76.5326 45.4674C76.818 45.7528 77.2051 45.9131 77.6087 45.9131H102.391C102.795 45.9131 103.182 45.7528 103.467 45.4674C103.753 45.182 103.913 44.795 103.913 44.3914V19.6088C103.913 19.2052 103.753 18.8181 103.467 18.5327C103.182 18.2474 102.795 18.087 102.391 18.087ZM77.6087 18.9566H102.391C102.564 18.9566 102.73 19.0253 102.852 19.1476C102.975 19.2699 103.043 19.4358 103.043 19.6088V22.4349H76.9565V19.6088C76.9565 19.4358 77.0252 19.2699 77.1475 19.1476C77.2698 19.0253 77.4357 18.9566 77.6087 18.9566ZM102.391 45.0436H77.6087C77.4357 45.0436 77.2698 44.9748 77.1475 44.8525C77.0252 44.7302 76.9565 44.5644 76.9565 44.3914V23.3044H103.043V44.3914C103.043 44.5644 102.975 44.7302 102.852 44.8525C102.73 44.9748 102.564 45.0436 102.391 45.0436Z" fill="#999999"/>
<path d="M90.0558 36.174C88.2686 36.174 86.646 36.9684 85.9192 38.2067C85.8801 38.2594 85.8523 38.3199 85.8378 38.3844C85.8233 38.4489 85.8223 38.5157 85.835 38.5806C85.8476 38.6455 85.8736 38.7069 85.9112 38.7607C85.9488 38.8146 85.9971 38.8596 86.053 38.8929C86.1089 38.9263 86.1711 38.9471 86.2354 38.954C86.2998 38.9609 86.3648 38.9538 86.4263 38.9331C86.4877 38.9124 86.5442 38.8786 86.5919 38.8339C86.6396 38.7893 86.6775 38.7347 86.7031 38.674C87.2676 37.7184 88.584 37.1015 90.0558 37.1015C91.4431 37.1015 92.7275 37.6716 93.3285 38.5525C93.3613 38.6064 93.4043 38.6529 93.4552 38.6892C93.5061 38.7255 93.5636 38.7508 93.6243 38.7637C93.6851 38.7765 93.7477 38.7766 93.8085 38.7639C93.8693 38.7512 93.9269 38.726 93.9778 38.6898C94.0287 38.6536 94.0719 38.6072 94.1047 38.5534C94.1376 38.4995 94.1593 38.4395 94.1687 38.3768C94.1781 38.3141 94.1749 38.2501 94.1594 38.1888C94.1438 38.1274 94.1162 38.0699 94.0782 38.0198C93.3011 36.8842 91.7585 36.174 90.0558 36.174Z" fill="#999999"/>
<path d="M86.528 33.2455C86.6078 33.3139 86.7106 33.3497 86.8156 33.3456C86.9206 33.3415 87.0203 33.298 87.0946 33.2237C87.169 33.1493 87.2125 33.0497 87.2166 32.9446C87.2206 32.8396 87.1849 32.7369 87.1165 32.657L85.7433 31.2817L87.1165 29.9064C87.1849 29.8266 87.2206 29.7239 87.2166 29.6188C87.2125 29.5138 87.169 29.4141 87.0946 29.3398C87.0203 29.2654 86.9206 29.2219 86.8156 29.2178C86.7106 29.2138 86.6078 29.2495 86.528 29.3179L85.1527 30.6911L83.7774 29.3179C83.6975 29.2495 83.5948 29.2138 83.4898 29.2178C83.3847 29.2219 83.2851 29.2654 83.2108 29.3398C83.1364 29.4141 83.0929 29.5138 83.0888 29.6188C83.0848 29.7239 83.1205 29.8266 83.1889 29.9064L84.5621 31.2817L83.1889 32.657C83.1452 32.6944 83.1097 32.7405 83.0846 32.7923C83.0596 32.8441 83.0455 32.9005 83.0433 32.9579C83.0411 33.0154 83.0507 33.0727 83.0717 33.1263C83.0927 33.1799 83.1245 33.2285 83.1652 33.2692C83.2059 33.3099 83.2545 33.3417 83.3081 33.3627C83.3617 33.3837 83.419 33.3934 83.4765 33.3911C83.534 33.3889 83.5904 33.3748 83.6421 33.3498C83.6939 33.3247 83.74 33.2892 83.7774 33.2455L85.1527 31.8723L86.528 33.2455Z" fill="#999999"/>
<path d="M96.8354 29.3383C96.7576 29.2609 96.6523 29.2175 96.5426 29.2175C96.4329 29.2175 96.3276 29.2609 96.2498 29.3383L94.8814 30.7046L93.513 29.3383C93.4335 29.2703 93.3313 29.2347 93.2268 29.2387C93.1223 29.2428 93.0231 29.2861 92.9492 29.3601C92.8752 29.434 92.8319 29.5332 92.8278 29.6377C92.8238 29.7422 92.8594 29.8444 92.9274 29.9239L94.2937 31.2923L92.9274 32.6607C92.8839 32.6979 92.8486 32.7437 92.8237 32.7953C92.7988 32.8468 92.7847 32.9029 92.7825 32.9601C92.7803 33.0173 92.79 33.0743 92.8108 33.1276C92.8317 33.1809 92.8634 33.2293 92.9039 33.2698C92.9443 33.3103 92.9927 33.3419 93.046 33.3628C93.0993 33.3837 93.1564 33.3933 93.2136 33.3911C93.2708 33.3889 93.3269 33.3749 93.3784 33.35C93.4299 33.3251 93.4757 33.2898 93.513 33.2463L94.8814 31.8799L96.2498 33.2463C96.3292 33.3143 96.4314 33.3499 96.536 33.3458C96.6405 33.3418 96.7396 33.2985 96.8136 33.2245C96.8876 33.1505 96.9309 33.0514 96.9349 32.9469C96.939 32.8423 96.9034 32.7401 96.8354 32.6607L95.469 31.2923L96.8354 29.9239C96.9127 29.8461 96.9561 29.7408 96.9561 29.6311C96.9561 29.5214 96.9127 29.4161 96.8354 29.3383Z" fill="#999999"/>
<path d="M1.776 103V86.2H3.792L12.744 99.664V86.2H14.76V103H12.744L3.792 89.536V103H1.776ZM23.6989 103.288C22.6109 103.288 21.6109 103.048 20.6989 102.568C19.7869 102.072 19.0589 101.36 18.5149 100.432C17.9709 99.488 17.6989 98.352 17.6989 97.024C17.6989 95.76 17.9629 94.664 18.4909 93.736C19.0349 92.808 19.7629 92.088 20.6749 91.576C21.6029 91.064 22.6429 90.808 23.7949 90.808C24.8989 90.808 25.9069 91.048 26.8189 91.528C27.7469 92.008 28.4909 92.712 29.0509 93.64C29.6109 94.568 29.8909 95.696 29.8909 97.024C29.8909 98.24 29.6269 99.32 29.0989 100.264C28.5709 101.208 27.8349 101.952 26.8909 102.496C25.9629 103.024 24.8989 103.288 23.6989 103.288ZM23.6989 101.536C24.4829 101.536 25.1869 101.352 25.8109 100.984C26.4349 100.6 26.9309 100.072 27.2989 99.4C27.6669 98.728 27.8509 97.936 27.8509 97.024C27.8509 96.16 27.6909 95.392 27.3709 94.72C27.0509 94.048 26.5869 93.52 25.9789 93.136C25.3709 92.752 24.6349 92.56 23.7709 92.56C22.8909 92.56 22.1469 92.76 21.5389 93.16C20.9469 93.56 20.4989 94.096 20.1949 94.768C19.8909 95.44 19.7389 96.192 19.7389 97.024C19.7389 98.08 19.9309 98.944 20.3149 99.616C20.6989 100.272 21.1949 100.76 21.8029 101.08C22.4109 101.384 23.0429 101.536 23.6989 101.536ZM39.0388 103V91.096H40.8628L41.0068 92.824C41.3908 92.184 41.9028 91.688 42.5428 91.336C43.1828 90.984 43.9028 90.808 44.7028 90.808C45.6468 90.808 46.4548 91 47.1268 91.384C47.8148 91.768 48.3428 92.352 48.7108 93.136C49.1268 92.416 49.6948 91.848 50.4148 91.432C51.1508 91.016 51.9428 90.808 52.7908 90.808C53.7508 90.808 54.5748 91 55.2628 91.384C55.9668 91.752 56.5108 92.328 56.8948 93.112C57.2788 93.88 57.4708 94.856 57.4708 96.04V103H55.4788V96.256C55.4788 95.024 55.2308 94.096 54.7348 93.472C54.2388 92.848 53.5268 92.536 52.5988 92.536C51.6388 92.536 50.8388 92.912 50.1988 93.664C49.5748 94.4 49.2628 95.456 49.2628 96.832V103H47.2468V96.256C47.2468 95.024 46.9988 94.096 46.5028 93.472C46.0068 92.848 45.2948 92.536 44.3668 92.536C43.4228 92.536 42.6308 92.912 41.9908 93.664C41.3668 94.4 41.0548 95.456 41.0548 96.832V103H39.0388ZM64.4676 103.288C63.6516 103.288 62.9076 103.152 62.2356 102.88C61.5636 102.608 61.0276 102.2 60.6276 101.656C60.2436 101.096 60.0516 100.416 60.0516 99.616C60.0516 98.688 60.2916 97.952 60.7716 97.408C61.2516 96.848 61.8836 96.448 62.6676 96.208C63.4676 95.952 64.3236 95.824 65.2356 95.824H68.4516C68.4516 94.992 68.3076 94.336 68.0196 93.856C67.7476 93.376 67.3876 93.032 66.9396 92.824C66.4916 92.616 65.9956 92.512 65.4516 92.512C64.6676 92.512 63.9876 92.704 63.4116 93.088C62.8516 93.456 62.4996 94.032 62.3556 94.816H60.2916C60.3716 93.952 60.6596 93.224 61.1556 92.632C61.6516 92.04 62.2756 91.592 63.0276 91.288C63.7956 90.968 64.6036 90.808 65.4516 90.808C66.6516 90.808 67.6196 91.032 68.3556 91.48C69.0916 91.912 69.6276 92.496 69.9636 93.232C70.2996 93.968 70.4676 94.784 70.4676 95.68V99.328C70.4676 99.92 70.5396 100.368 70.6836 100.672C70.8276 100.976 71.1956 101.16 71.7876 101.224V103C71.2596 103 70.7796 102.936 70.3476 102.808C69.9156 102.664 69.5476 102.44 69.2436 102.136C68.9556 101.816 68.7476 101.4 68.6196 100.888C68.2196 101.56 67.6676 102.128 66.9636 102.592C66.2756 103.056 65.4436 103.288 64.4676 103.288ZM64.7796 101.584C65.5796 101.584 66.2516 101.384 66.7956 100.984C67.3396 100.568 67.7476 100.04 68.0196 99.4C68.3076 98.76 68.4516 98.096 68.4516 97.408V97.384H65.4036C64.8436 97.384 64.3156 97.448 63.8196 97.576C63.3236 97.688 62.9236 97.904 62.6196 98.224C62.3156 98.528 62.1636 98.96 62.1636 99.52C62.1636 100.24 62.4196 100.768 62.9316 101.104C63.4436 101.424 64.0596 101.584 64.7796 101.584ZM78.5944 103C77.5064 103 76.6504 102.736 76.0264 102.208C75.4024 101.68 75.0904 100.728 75.0904 99.352V92.8H73.0264V91.096H75.0904V88.24H77.1064V91.096H80.4424V92.8H77.1064V99.352C77.1064 100.104 77.2584 100.616 77.5624 100.888C77.8664 101.144 78.4024 101.272 79.1704 101.272H80.4424V103H78.5944ZM88.3155 103.288C87.1955 103.288 86.1795 103.032 85.2675 102.52C84.3715 102.008 83.6595 101.288 83.1315 100.36C82.6035 99.416 82.3395 98.312 82.3395 97.048C82.3395 95.816 82.5955 94.736 83.1075 93.808C83.6195 92.864 84.3235 92.128 85.2195 91.6C86.1155 91.072 87.1475 90.808 88.3155 90.808C89.7235 90.808 90.9075 91.176 91.8675 91.912C92.8435 92.648 93.4595 93.632 93.7155 94.864H91.6515C91.4915 94.128 91.0995 93.56 90.4755 93.16C89.8515 92.744 89.1235 92.536 88.2915 92.536C87.4435 92.536 86.7315 92.744 86.1555 93.16C85.5795 93.576 85.1395 94.128 84.8355 94.816C84.5475 95.504 84.4035 96.248 84.4035 97.048C84.4035 97.928 84.5715 98.712 84.9075 99.4C85.2435 100.088 85.6995 100.624 86.2755 101.008C86.8675 101.392 87.5395 101.584 88.2915 101.584C89.1235 101.584 89.8515 101.384 90.4755 100.984C91.0995 100.568 91.4915 99.984 91.6515 99.232H93.7155C93.5555 100.032 93.2275 100.736 92.7315 101.344C92.2355 101.952 91.6115 102.432 90.8595 102.784C90.1075 103.12 89.2595 103.288 88.3155 103.288ZM96.531 103V86.2H98.547V93.136C98.947 92.4 99.515 91.832 100.251 91.432C100.987 91.016 101.787 90.808 102.651 90.808C104.027 90.808 105.131 91.24 105.963 92.104C106.795 92.952 107.211 94.264 107.211 96.04V103H105.219V96.256C105.219 95.024 104.963 94.096 104.451 93.472C103.955 92.848 103.211 92.536 102.219 92.536C101.179 92.536 100.307 92.912 99.603 93.664C98.899 94.4 98.547 95.456 98.547 96.832V103H96.531ZM117.265 103V92.8H115.465V91.096H117.265V89.512C117.265 88.36 117.553 87.52 118.129 86.992C118.705 86.464 119.545 86.2 120.649 86.2H121.849V87.928H120.961C120.353 87.928 119.921 88.056 119.665 88.312C119.409 88.552 119.281 88.968 119.281 89.56V91.096H122.209V92.8H119.281V103H117.265ZM129.636 103.288C128.548 103.288 127.548 103.048 126.636 102.568C125.724 102.072 124.996 101.36 124.452 100.432C123.908 99.488 123.636 98.352 123.636 97.024C123.636 95.76 123.9 94.664 124.428 93.736C124.972 92.808 125.7 92.088 126.612 91.576C127.54 91.064 128.58 90.808 129.732 90.808C130.836 90.808 131.844 91.048 132.756 91.528C133.684 92.008 134.428 92.712 134.988 93.64C135.548 94.568 135.828 95.696 135.828 97.024C135.828 98.24 135.564 99.32 135.036 100.264C134.508 101.208 133.772 101.952 132.828 102.496C131.9 103.024 130.836 103.288 129.636 103.288ZM129.636 101.536C130.42 101.536 131.124 101.352 131.748 100.984C132.372 100.6 132.868 100.072 133.236 99.4C133.604 98.728 133.788 97.936 133.788 97.024C133.788 96.16 133.628 95.392 133.308 94.72C132.988 94.048 132.524 93.52 131.916 93.136C131.308 92.752 130.572 92.56 129.708 92.56C128.828 92.56 128.084 92.76 127.476 93.16C126.884 93.56 126.436 94.096 126.132 94.768C125.828 95.44 125.676 96.192 125.676 97.024C125.676 98.08 125.868 98.944 126.252 99.616C126.636 100.272 127.132 100.76 127.74 101.08C128.348 101.384 128.98 101.536 129.636 101.536ZM142.993 103.288C142.065 103.288 141.249 103.104 140.545 102.736C139.857 102.352 139.321 101.776 138.937 101.008C138.553 100.224 138.361 99.24 138.361 98.056V91.096H140.377V97.84C140.377 99.072 140.633 100 141.145 100.624C141.657 101.248 142.425 101.56 143.449 101.56C144.473 101.56 145.321 101.192 145.993 100.456C146.681 99.704 147.025 98.64 147.025 97.264V91.096H149.041V103H147.217L147.097 100.864C146.713 101.616 146.161 102.208 145.441 102.64C144.721 103.072 143.905 103.288 142.993 103.288ZM152.359 103V91.096H154.183L154.303 93.232C154.687 92.48 155.239 91.888 155.959 91.456C156.679 91.024 157.495 90.808 158.407 90.808C159.815 90.808 160.935 91.24 161.767 92.104C162.615 92.952 163.039 94.264 163.039 96.04V103H161.023V96.256C161.023 95.024 160.767 94.096 160.255 93.472C159.743 92.848 158.975 92.536 157.951 92.536C156.927 92.536 156.071 92.912 155.383 93.664C154.711 94.4 154.375 95.456 154.375 96.832V103H152.359ZM171.517 103.288C170.301 103.288 169.253 103.008 168.373 102.448C167.493 101.888 166.813 101.136 166.333 100.192C165.853 99.248 165.613 98.192 165.613 97.024C165.613 95.872 165.845 94.824 166.309 93.88C166.789 92.936 167.469 92.192 168.349 91.648C169.229 91.088 170.293 90.808 171.541 90.808C172.517 90.808 173.381 91.008 174.133 91.408C174.885 91.808 175.469 92.368 175.885 93.088V86.2H177.901V103H176.077L175.885 101.032C175.501 101.608 174.949 102.128 174.229 102.592C173.509 103.056 172.605 103.288 171.517 103.288ZM171.733 101.536C172.613 101.536 173.357 101.336 173.965 100.936C174.573 100.52 175.029 99.976 175.333 99.304C175.653 98.616 175.813 97.864 175.813 97.048C175.813 96.184 175.653 95.416 175.333 94.744C175.013 94.072 174.549 93.544 173.941 93.16C173.333 92.76 172.597 92.56 171.733 92.56C170.965 92.56 170.277 92.744 169.669 93.112C169.061 93.48 168.573 94 168.205 94.672C167.853 95.328 167.677 96.12 167.677 97.048C167.677 97.976 167.861 98.776 168.229 99.448C168.597 100.12 169.085 100.64 169.693 101.008C170.317 101.36 170.997 101.536 171.733 101.536Z" fill="#999999"/>
</svg>
