<svg width="15" height="15" viewBox="0 0 15 15" fill="none" xmlns="http://www.w3.org/2000/svg">
<path d="M9.107 11.25H13.1709L13.014 11.407C12.8047 11.6162 12.8047 11.9553 13.014 12.1645C13.1186 12.2691 13.2557 12.3215 13.3927 12.3215C13.5298 12.3215 13.6669 12.2691 13.7715 12.1645L14.8429 11.0931C15.0522 10.8838 15.0522 10.5448 14.8429 10.3356L13.7715 9.26413C13.5622 9.05486 13.2232 9.05486 13.014 9.26413C12.8047 9.47339 12.8047 9.8124 13.014 10.0217L13.1709 10.1786H9.107C8.8109 10.1786 8.57129 10.4185 8.57129 10.7143C8.57129 11.0102 8.8109 11.25 9.107 11.25Z" fill="#1D2F6F"/>
<path d="M14.4641 12.8571H10.4003L10.5572 12.7001C10.7665 12.4909 10.7665 12.1519 10.5572 11.9426C10.3479 11.7333 10.0089 11.7333 9.79967 11.9426L8.72824 13.014C8.51897 13.2233 8.51897 13.5623 8.72824 13.7716L9.79967 14.843C9.9043 14.9476 10.0414 14.9999 10.1784 14.9999C10.3155 14.9999 10.4526 14.9476 10.5572 14.843C10.7665 14.6337 10.7665 14.2947 10.5572 14.0854L10.4003 13.9285H14.4641C14.7603 13.9285 14.9999 13.6886 14.9999 13.3928C14.9999 13.0969 14.7603 12.8571 14.4641 12.8571Z" fill="#1D2F6F"/>
<path d="M0 6.4285H2.14286V4.28564L0 6.4285Z" fill="#1D2F6F"/>
<path d="M10.7144 0C8.35132 0 6.42871 1.92261 6.42871 4.28571C6.42871 6.64882 8.35132 8.57143 10.7144 8.57143C13.0775 8.57143 15.0001 6.64882 15.0001 4.28571C15.0001 1.92261 13.0775 0 10.7144 0ZM10.7144 4.01786C11.6007 4.01786 12.3216 4.73877 12.3216 5.625C12.3216 6.41951 11.7408 7.07663 10.9823 7.20507V7.76786C10.9823 7.91591 10.8625 8.03571 10.7144 8.03571C10.5664 8.03571 10.4466 7.91591 10.4466 7.76786V7.20507C9.68805 7.07663 9.10728 6.41951 9.10728 5.625C9.10728 5.47695 9.22709 5.35714 9.37514 5.35714C9.52319 5.35714 9.643 5.47695 9.643 5.625C9.643 6.21591 10.1235 6.69643 10.7144 6.69643C11.3053 6.69643 11.7859 6.21591 11.7859 5.625C11.7859 5.03409 11.3053 4.55357 10.7144 4.55357C9.82819 4.55357 9.10728 3.83266 9.10728 2.94643C9.10728 2.15191 9.68805 1.49479 10.4466 1.36636V0.803571C10.4466 0.655518 10.5664 0.535714 10.7144 0.535714C10.8625 0.535714 10.9823 0.655518 10.9823 0.803571V1.36636C11.7408 1.49479 12.3216 2.15191 12.3216 2.94643C12.3216 3.09448 12.2018 3.21429 12.0537 3.21429C11.9057 3.21429 11.7859 3.09448 11.7859 2.94643C11.7859 2.35552 11.3053 1.875 10.7144 1.875C10.1235 1.875 9.643 2.35552 9.643 2.94643C9.643 3.53734 10.1235 4.01786 10.7144 4.01786Z" fill="#1D2F6F"/>
<path d="M5.89286 4.28564H2.67857V6.4285C2.67857 6.72435 2.43874 6.96422 2.14286 6.96422H0V14.4642C0 14.7601 0.239835 14.9999 0.535714 14.9999H7.5C7.79588 14.9999 8.03571 14.7601 8.03571 14.4642V8.29183C6.74466 7.42581 5.89286 5.95357 5.89286 4.28564ZM6.16071 13.3928H1.875C1.72695 13.3928 1.60714 13.273 1.60714 13.1249C1.60714 12.9769 1.72695 12.8571 1.875 12.8571H6.16071C6.30877 12.8571 6.42857 12.9769 6.42857 13.1249C6.42857 13.273 6.30877 13.3928 6.16071 13.3928ZM6.16071 12.3214H1.875C1.72695 12.3214 1.60714 12.2016 1.60714 12.0535C1.60714 11.9054 1.72695 11.7856 1.875 11.7856H6.16071C6.30877 11.7856 6.42857 11.9054 6.42857 12.0535C6.42857 12.2016 6.30877 12.3214 6.16071 12.3214ZM6.16071 11.2499H1.875C1.72695 11.2499 1.60714 11.1301 1.60714 10.9821C1.60714 10.834 1.72695 10.7142 1.875 10.7142H6.16071C6.30877 10.7142 6.42857 10.834 6.42857 10.9821C6.42857 11.1301 6.30877 11.2499 6.16071 11.2499ZM6.16071 10.1785H1.875C1.72695 10.1785 1.60714 10.0587 1.60714 9.91064C1.60714 9.76259 1.72695 9.64279 1.875 9.64279H6.16071C6.30877 9.64279 6.42857 9.76259 6.42857 9.91064C6.42857 10.0587 6.30877 10.1785 6.16071 10.1785Z" fill="#1D2F6F"/>
</svg>
