<svg width="15" height="14" viewBox="0 0 15 14" fill="none" xmlns="http://www.w3.org/2000/svg">
<path d="M0 5.35574L5.41462 8.45577L6.82128 6.69084L1.11984 3.68042L0 5.35574Z" fill="#1D2F6F"/>
<path d="M8.16357 6.6842L9.57547 8.45573L15 5.35L13.865 3.55811L8.16357 6.6842Z" fill="#1D2F6F"/>
<path d="M1.94141 3.12093L7.49099 6.05116L13.0485 3.00394L7.50307 0.384521L1.94141 3.12093Z" fill="#1D2F6F"/>
<path d="M1.41406 10.0977L7.05624 13.0769V7.80523L5.86669 9.29776C5.73169 9.46718 5.49339 9.51279 5.30538 9.40513L1.41406 7.17725V10.0977Z" fill="#1D2F6F"/>
<path d="M7.93408 7.80526V13.0632L13.5763 9.96529V7.17725L9.68495 9.40513C9.49697 9.51273 9.25863 9.46715 9.12367 9.29776L7.93408 7.80526Z" fill="#1D2F6F"/>
</svg>
