<svg width="15" height="15" viewBox="0 0 15 15" fill="none" xmlns="http://www.w3.org/2000/svg">
<path d="M12.375 12C11.6788 12 11.0111 11.7234 10.5188 11.2312C10.0266 10.7389 9.75 10.0712 9.75 9.375V5.625C9.75 4.92881 10.0266 4.26113 10.5188 3.76884C11.0111 3.27656 11.6788 3 12.375 3C13.0712 3 13.7389 3.27656 14.2312 3.76884C14.7234 4.26113 15 4.92881 15 5.625V9.375C15 10.0712 14.7234 10.7389 14.2312 11.2312C13.7389 11.7234 13.0712 12 12.375 12ZM12.375 4.5C12.0766 4.5 11.7905 4.61853 11.5795 4.8295C11.3685 5.04048 11.25 5.32663 11.25 5.625V9.375C11.25 9.67337 11.3685 9.95952 11.5795 10.1705C11.7905 10.3815 12.0766 10.5 12.375 10.5C12.6734 10.5 12.9595 10.3815 13.1705 10.1705C13.3815 9.95952 13.5 9.67337 13.5 9.375V5.625C13.5 5.32663 13.3815 5.04048 13.1705 4.8295C12.9595 4.61853 12.6734 4.5 12.375 4.5Z" fill="#1D2F6F"/>
<path d="M14.25 8.64C14.0511 8.64 13.8603 8.71902 13.7197 8.85967C13.579 9.00032 13.5 9.19109 13.5 9.39C13.5 9.68837 13.3815 9.97452 13.1705 10.1855C12.9595 10.3965 12.6734 10.515 12.375 10.515C12.0766 10.515 11.7905 10.3965 11.5795 10.1855C11.3685 9.97452 11.25 9.68837 11.25 9.39V1.875C11.25 1.37772 11.0525 0.900805 10.7008 0.549175C10.3492 0.197544 9.87228 0 9.375 0H1.875C1.37772 0 0.900805 0.197544 0.549175 0.549175C0.197544 0.900805 0 1.37772 0 1.875V10.5C0 11.4946 0.395088 12.4484 1.09835 13.1517C1.80161 13.8549 2.75544 14.25 3.75 14.25H11.25C12.2446 14.25 13.1984 13.8549 13.9017 13.1517C14.6049 12.4484 15 11.4946 15 10.5V9.375C14.9961 9.1787 14.9153 8.99177 14.7751 8.85434C14.6349 8.71692 14.4463 8.63996 14.25 8.64ZM3.375 10.5C3.22666 10.5 3.08166 10.456 2.95832 10.3736C2.83499 10.2912 2.73886 10.1741 2.68209 10.037C2.62532 9.89997 2.61047 9.74917 2.63941 9.60368C2.66835 9.4582 2.73978 9.32456 2.84467 9.21967C2.94956 9.11478 3.0832 9.04335 3.22868 9.01441C3.37417 8.98547 3.52497 9.00032 3.66201 9.05709C3.79906 9.11386 3.91619 9.20998 3.9986 9.33332C4.08101 9.45666 4.125 9.60166 4.125 9.75C4.125 9.94891 4.04598 10.1397 3.90533 10.2803C3.76468 10.421 3.57391 10.5 3.375 10.5ZM3.375 7.5C3.22666 7.5 3.08166 7.45601 2.95832 7.3736C2.83499 7.29119 2.73886 7.17406 2.68209 7.03701C2.62532 6.89997 2.61047 6.74917 2.63941 6.60368C2.66835 6.4582 2.73978 6.32456 2.84467 6.21967C2.94956 6.11478 3.0832 6.04335 3.22868 6.01441C3.37417 5.98547 3.52497 6.00032 3.66201 6.05709C3.79906 6.11386 3.91619 6.20999 3.9986 6.33332C4.08101 6.45666 4.125 6.60166 4.125 6.75C4.125 6.94891 4.04598 7.13968 3.90533 7.28033C3.76468 7.42098 3.57391 7.5 3.375 7.5ZM3.375 4.5C3.22666 4.5 3.08166 4.45601 2.95832 4.3736C2.83499 4.29119 2.73886 4.17406 2.68209 4.03701C2.62532 3.89997 2.61047 3.74917 2.63941 3.60368C2.66835 3.4582 2.73978 3.32456 2.84467 3.21967C2.94956 3.11478 3.0832 3.04335 3.22868 3.01441C3.37417 2.98547 3.52497 3.00032 3.66201 3.05709C3.79906 3.11386 3.91619 3.20999 3.9986 3.33332C4.08101 3.45666 4.125 3.60166 4.125 3.75C4.125 3.94891 4.04598 4.13968 3.90533 4.28033C3.76468 4.42098 3.57391 4.5 3.375 4.5ZM7.875 10.5H5.625C5.42609 10.5 5.23532 10.421 5.09467 10.2803C4.95402 10.1397 4.875 9.94891 4.875 9.75C4.875 9.55109 4.95402 9.36032 5.09467 9.21967C5.23532 9.07902 5.42609 9 5.625 9H7.875C8.07391 9 8.26468 9.07902 8.40533 9.21967C8.54598 9.36032 8.625 9.55109 8.625 9.75C8.625 9.94891 8.54598 10.1397 8.40533 10.2803C8.26468 10.421 8.07391 10.5 7.875 10.5ZM7.875 7.5H5.625C5.42609 7.5 5.23532 7.42098 5.09467 7.28033C4.95402 7.13968 4.875 6.94891 4.875 6.75C4.875 6.55109 4.95402 6.36032 5.09467 6.21967C5.23532 6.07902 5.42609 6 5.625 6H7.875C8.07391 6 8.26468 6.07902 8.40533 6.21967C8.54598 6.36032 8.625 6.55109 8.625 6.75C8.625 6.94891 8.54598 7.13968 8.40533 7.28033C8.26468 7.42098 8.07391 7.5 7.875 7.5ZM7.875 4.5H5.625C5.42609 4.5 5.23532 4.42098 5.09467 4.28033C4.95402 4.13968 4.875 3.94891 4.875 3.75C4.875 3.55109 4.95402 3.36032 5.09467 3.21967C5.23532 3.07902 5.42609 3 5.625 3H7.875C8.07391 3 8.26468 3.07902 8.40533 3.21967C8.54598 3.36032 8.625 3.55109 8.625 3.75C8.625 3.94891 8.54598 4.13968 8.40533 4.28033C8.26468 4.42098 8.07391 4.5 7.875 4.5Z" fill="#1D2F6F"/>
</svg>
