<svg width="15" height="18" viewBox="0 0 15 18" fill="none" xmlns="http://www.w3.org/2000/svg">
<path d="M7.38707 8.66059C8.57688 8.66059 9.60716 8.23386 10.449 7.39191C11.2908 6.5501 11.7175 5.5201 11.7175 4.33016C11.7175 3.14063 11.2908 2.11049 10.4488 1.2684C9.60688 0.426733 8.57674 0 7.38707 0C6.19713 0 5.16713 0.426733 4.32532 1.26854C3.48351 2.11035 3.05664 3.14049 3.05664 4.33016C3.05664 5.5201 3.48351 6.55024 4.32546 7.39205C5.1674 8.23372 6.19754 8.66059 7.38707 8.66059Z" fill="#1D2F6F"/>
<path d="M14.9636 13.825C14.9394 13.4747 14.8903 13.0925 14.818 12.689C14.745 12.2824 14.651 11.898 14.5386 11.5467C14.4224 11.1837 14.2644 10.8251 14.069 10.4815C13.8663 10.1248 13.6282 9.8143 13.361 9.55875C13.0816 9.29141 12.7395 9.07646 12.3439 8.91968C11.9496 8.76372 11.5127 8.68471 11.0454 8.68471C10.8619 8.68471 10.6844 8.76001 10.3416 8.98319C10.1306 9.12077 9.88386 9.27988 9.60843 9.45587C9.37291 9.60594 9.05385 9.74653 8.65977 9.87383C8.27528 9.99824 7.8849 10.0613 7.49959 10.0613C7.11428 10.0613 6.72403 9.99824 6.33914 9.87383C5.94546 9.74667 5.62641 9.60607 5.39116 9.45601C5.11833 9.28167 4.87143 9.12255 4.65731 8.98305C4.31493 8.75988 4.1373 8.68457 3.95376 8.68457C3.48629 8.68457 3.04955 8.76372 2.65546 8.91982C2.26014 9.07633 1.9179 9.29127 1.63821 9.55889C1.37114 9.81457 1.13288 10.125 0.930419 10.4815C0.735227 10.8251 0.577208 11.1835 0.460888 11.5469C0.348547 11.8982 0.254586 12.2824 0.181612 12.689C0.109324 13.092 0.0602173 13.4742 0.0359383 13.8254C0.0120709 14.1694 0 14.5265 0 14.8871C0 15.8256 0.298343 16.5854 0.886662 17.1457C1.46771 17.6986 2.23654 17.9792 3.17149 17.9792H11.8285C12.7635 17.9792 13.532 17.6988 14.1132 17.1457C14.7017 16.5858 15 15.8259 15 14.8869C14.9999 14.5247 14.9877 14.1674 14.9636 13.825Z" fill="#1D2F6F"/>
</svg>
