<svg width="15" height="15" viewBox="0 0 15 15" fill="none" xmlns="http://www.w3.org/2000/svg">
<path d="M9.37491 8.13368C9.0293 8.13368 8.74996 8.41371 8.74996 8.75863V11.2587C8.74996 11.603 8.46992 11.8836 8.12489 11.8836H6.2499V2.50873C6.2499 1.97498 5.9099 1.49811 5.3987 1.32061L5.21365 1.2587H8.12489C8.46992 1.2587 8.74996 1.53931 8.74996 1.88377V3.75875C8.74996 4.10368 9.0293 4.38371 9.37491 4.38371C9.72052 4.38371 9.99987 4.10368 9.99987 3.75875V1.88377C9.99987 0.850036 9.15862 0.00878906 8.12489 0.00878906H1.40624C1.38243 0.00878906 1.36252 0.019432 1.3394 0.0225218C1.30931 0.0200042 1.28058 0.00878906 1.25003 0.00878906C0.560641 0.00878906 0 0.569315 0 1.2587V12.5086C0 13.0423 0.340001 13.5192 0.851204 13.6967L4.6125 14.9505C4.73998 14.9899 4.86678 15.0086 4.99999 15.0086C5.68938 15.0086 6.2499 14.448 6.2499 13.7586V13.1337H8.12489C9.15862 13.1337 9.99987 12.2924 9.99987 11.2587V8.75863C9.99987 8.41371 9.72052 8.13368 9.37491 8.13368Z" fill="#1D2F6F"/>
<path d="M14.8169 5.81702L12.3168 3.31708C12.1382 3.13833 11.8694 3.08454 11.6357 3.18136C11.4026 3.27829 11.25 3.50637 11.25 3.75893V5.63392H8.75007C8.40503 5.63392 8.125 5.91384 8.125 6.25887C8.125 6.60391 8.40503 6.88383 8.75007 6.88383H11.25V8.75881C11.25 9.01138 11.4026 9.23946 11.6357 9.33639C11.8694 9.43321 12.1382 9.37942 12.3168 9.20078L14.8169 6.70073C15.0612 6.4564 15.0612 6.06135 14.8169 5.81702Z" fill="#1D2F6F"/>
</svg>
