<svg width="15" height="15" viewBox="0 0 15 15" fill="none" xmlns="http://www.w3.org/2000/svg">
<path d="M11.9248 7.03203C9.89416 7.03203 8.2357 5.48839 8.01382 3.51611H1.31847C0.591435 3.51611 0 4.10755 0 4.83458V12.7454C0 13.4724 0.591435 14.0639 1.31847 14.0639H12.8038C13.5308 14.0639 14.1223 13.4724 14.1223 12.7454V6.36245C13.4932 6.78451 12.7376 7.03203 11.9248 7.03203ZM10.1668 7.911C10.4096 7.911 10.6063 8.10778 10.6063 8.35049C10.6063 8.59321 10.4096 8.78998 10.1668 8.78998C9.92413 8.78998 9.72736 8.59321 9.72736 8.35049C9.72736 8.10778 9.92413 7.911 10.1668 7.911ZM8.40889 7.911C8.65161 7.911 8.84838 8.10778 8.84838 8.35049C8.84838 8.59321 8.65161 8.78998 8.40889 8.78998C8.16618 8.78998 7.9694 8.59321 7.9694 8.35049C7.9694 8.10778 8.16618 7.911 8.40889 7.911ZM6.15285 11.8664C6.15285 12.1093 5.95628 12.3059 5.71336 12.3059H2.19745C1.95453 12.3059 1.75796 12.1093 1.75796 11.8664V10.9874C1.75796 10.2302 2.14298 9.56114 2.72765 9.1658C2.40137 8.84647 2.19745 8.40271 2.19745 7.911C2.19745 6.94146 2.98586 6.15305 3.9554 6.15305C4.92494 6.15305 5.71336 6.94146 5.71336 7.911C5.71336 8.40271 5.50944 8.84647 5.18316 9.1658C5.76783 9.56114 6.15285 10.2302 6.15285 10.9874V11.8664ZM11.9248 12.3059H8.40889C8.16597 12.3059 7.9694 12.1093 7.9694 11.8664C7.9694 11.6235 8.16597 11.4269 8.40889 11.4269H11.9248C12.1677 11.4269 12.3643 11.6235 12.3643 11.8664C12.3643 12.1093 12.1677 12.3059 11.9248 12.3059ZM11.9248 10.5479H8.40889C8.16597 10.5479 7.9694 10.3514 7.9694 10.1085C7.9694 9.86553 8.16597 9.66896 8.40889 9.66896H11.9248C12.1677 9.66896 12.3643 9.86553 12.3643 10.1085C12.3643 10.3514 12.1677 10.5479 11.9248 10.5479ZM11.9248 8.78998C11.6821 8.78998 11.4853 8.59321 11.4853 8.35049C11.4853 8.10778 11.6821 7.911 11.9248 7.911C12.1675 7.911 12.3643 8.10778 12.3643 8.35049C12.3643 8.59321 12.1675 8.78998 11.9248 8.78998Z" fill="#1D2F6F"/>
<path d="M3.957 7.03223C3.47251 7.03223 3.07812 7.42661 3.07812 7.91111C3.07812 8.3956 3.47251 8.78999 3.957 8.78999C4.4415 8.78999 4.83588 8.3956 4.83588 7.91111C4.83588 7.42661 4.4415 7.03223 3.957 7.03223Z" fill="#1D2F6F"/>
<path d="M3.95504 9.66895C3.22809 9.66895 2.63672 10.2603 2.63672 10.9873V11.4267H5.27336V10.9873C5.27336 10.2603 4.68199 9.66895 3.95504 9.66895Z" fill="#1D2F6F"/>
<path d="M11.8925 0C10.1965 0 8.8457 1.3801 8.8457 3.07608C8.8457 4.77205 10.2258 6.15216 11.9218 6.15216C13.6178 6.15216 14.9979 4.77205 14.9979 3.07608C14.9979 1.3801 13.5885 0 11.8925 0ZM13.5508 2.50788L11.793 4.26564C11.6214 4.43729 11.3433 4.43729 11.1716 4.26564L10.2927 3.38676C10.1211 3.21512 10.1211 2.93701 10.2927 2.76536C10.4644 2.59372 10.7425 2.59372 10.9141 2.76536L11.4823 3.33356L12.9294 1.88649C13.1011 1.71484 13.3792 1.71484 13.5508 1.88649C13.7225 2.05813 13.7225 2.33624 13.5508 2.50788Z" fill="#1D2F6F"/>
</svg>
