<svg width="15" height="17" viewBox="0 0 15 17" fill="none" xmlns="http://www.w3.org/2000/svg">
<path d="M14.1174 2.67542C13.2877 2.39027 12.6228 1.72195 12.3389 0.88706C12.1586 0.356462 11.6616 0 11.1026 0H3.89739C3.33832 0 2.84124 0.356462 2.66093 0.88706C2.37704 1.72195 1.71263 2.39027 0.882901 2.67542C0.354824 2.85673 0 3.3552 0 3.91541V5.73804C0 8.11647 0.712924 10.4067 2.06128 12.3609C3.29485 14.149 4.99513 15.5484 6.97778 16.4077C7.14385 16.4797 7.3219 16.5154 7.49994 16.5154C7.67811 16.5154 7.85615 16.4797 8.02197 16.4077C10.0049 15.5484 11.7052 14.149 12.9387 12.3609C14.2871 10.4067 15 8.11647 15 5.73804V3.91541C15 3.3552 14.6452 2.85673 14.1174 2.67542ZM10.7212 10.2235C10.7212 11.42 9.7477 12.3935 8.5513 12.3935H6.4487C5.2523 12.3935 4.27868 11.42 4.27868 10.2235V7.4387C4.27868 6.79609 4.80134 6.27355 5.44382 6.27355H5.47671V4.89546C5.47671 3.77996 6.38443 2.87223 7.49994 2.87223C8.61544 2.87223 9.52316 3.77996 9.52316 4.89546V6.27355H9.55605C10.1987 6.27355 10.7212 6.79609 10.7212 7.4387V10.2235Z" fill="#1D2F6F"/>
<path d="M8.55624 4.89537C8.55624 4.31349 8.08272 3.83984 7.50071 3.83984C6.91883 3.83984 6.44531 4.31349 6.44531 4.89537V6.27346H8.55624V4.89537Z" fill="#1D2F6F"/>
<path d="M9.55577 7.24121H5.44354C5.3348 7.24121 5.24609 7.32992 5.24609 7.43866V10.2234C5.24609 10.8863 5.78551 11.4258 6.44841 11.4258H8.55102C9.21392 11.4258 9.75321 10.8863 9.75321 10.2234V7.43866C9.75321 7.32992 9.66489 7.24121 9.55577 7.24121ZM7.9835 9.79062C7.9835 10.058 7.76678 10.2745 7.49965 10.2745C7.23265 10.2745 7.0158 10.058 7.0158 9.79062V8.87635C7.0158 8.60935 7.23265 8.3925 7.49965 8.3925C7.76678 8.3925 7.9835 8.60935 7.9835 8.87635V9.79062Z" fill="#1D2F6F"/>
</svg>
