<svg width="20" height="21" viewBox="0 0 20 21" fill="none" xmlns="http://www.w3.org/2000/svg">
<path fill-rule="evenodd" clip-rule="evenodd" d="M18.0389 16.4488C19.2712 14.7864 20 12.7283 20 10.5C20 4.97711 15.5228 0.5 10 0.5C4.47711 0.5 0 4.97711 0 10.5C0 16.0228 4.47711 20.5 10 20.5C12.8976 20.5 15.5073 19.2676 17.3337 17.2984C17.5838 17.0286 17.8194 16.745 18.0389 16.4488ZM17.4844 15.5C18.4417 14.0699 18.9999 12.3501 18.9999 10.5C18.9999 5.52944 14.9706 1.49998 9.99989 1.49998C5.02944 1.49998 0.999979 5.52944 0.999979 10.5C0.999979 12.3502 1.55822 14.0699 2.51557 15.5C3.72333 13.6957 5.56626 12.3524 7.72451 11.7902C6.68243 11.0681 5.99998 9.86377 5.99998 8.49994C5.99998 6.29082 7.79089 4.49992 10 4.49992C12.2091 4.49992 14 6.29082 14 8.49994C14 9.86367 13.3175 11.0681 12.2755 11.7901C14.4336 12.3524 16.2767 13.6956 17.4844 15.5ZM16.8403 16.3492C15.4369 14.0414 12.8985 12.5 10.0001 12.5C7.10158 12.5 4.56312 14.0414 3.15971 16.3493C4.81037 18.2778 7.2624 19.5 10 19.5C12.7376 19.5 15.1896 18.2777 16.8403 16.3492ZM10 11.5C11.6569 11.5 13 10.1569 13 8.49994C13 6.84305 11.657 5.49989 10 5.49989C8.34301 5.49989 6.99996 6.84315 6.99996 8.50004C6.99996 10.1569 8.34311 11.5 10 11.5Z" fill="white"/>
</svg>
