<svg width="68" height="75" viewBox="0 0 68 75" fill="none" xmlns="http://www.w3.org/2000/svg">
<path d="M56.5788 71.8574L51.2386 67.4118C50.978 67.1608 50.6726 66.9606 50.3379 66.822C49.9853 66.6758 49.6072 66.6008 49.2254 66.6013H49.2268L56.5788 71.8574ZM56.5788 71.8574V69.5028C56.5788 68.7333 56.8845 67.9952 57.4287 67.4511C57.9728 66.907 58.7108 66.6013 59.4802 66.6013C59.4803 66.6013 59.4803 66.6013 59.4804 66.6013H66.375V42.1649H30.4675V66.6013L56.5788 71.8574ZM36.1047 53.2668L37.1431 53.6996L36.1047 53.2668C35.9573 53.6205 35.8813 53.9999 35.8813 54.3832C35.8813 54.7664 35.9573 55.1458 36.1047 55.4995C36.2521 55.8533 36.4682 56.1743 36.7404 56.444C37.0126 56.7138 37.3355 56.927 37.6906 57.0712C38.0439 57.2148 38.4219 57.2873 38.8032 57.2846H38.8519C39.2331 57.2873 39.6112 57.2148 39.9645 57.0712C40.3195 56.927 40.6425 56.7138 40.9147 56.4441C41.1869 56.1743 41.4029 55.8533 41.5504 55.4995C41.6978 55.1458 41.7737 54.7664 41.7737 54.3832C41.7737 53.9999 41.6978 53.6205 41.5504 53.2668L40.512 53.6996L41.5504 53.2668C41.4029 52.913 41.1869 52.592 40.9147 52.3223C40.6425 52.0525 40.3195 51.8393 39.9645 51.6951C39.6112 51.5515 39.2331 51.479 38.8519 51.4817H38.8032C38.4219 51.479 38.0438 51.5515 37.6906 51.6951C37.3355 51.8393 37.0126 52.0525 36.7404 52.3223C36.4682 52.592 36.2522 52.913 36.1047 53.2668ZM47.2847 51.6951L47.7082 52.7373L47.2847 51.6951C46.9297 51.8393 46.6068 52.0525 46.3345 52.3223L47.1265 53.1213L46.3345 52.3223C46.0624 52.592 45.8463 52.913 45.6988 53.2668L46.7372 53.6996L45.6988 53.2668C45.5514 53.6205 45.4755 53.9999 45.4755 54.3832C45.4755 54.7664 45.5514 55.1458 45.6988 55.4995C45.8463 55.8533 46.0624 56.1743 46.3345 56.444C46.6067 56.7138 46.9297 56.927 47.2847 57.0712L47.7082 56.029L47.2847 57.0712C47.638 57.2148 48.0161 57.2873 48.3974 57.2846H48.446C48.8273 57.2873 49.2054 57.2148 49.5586 57.0712C49.9137 56.927 50.2366 56.7138 50.5088 56.4441C50.781 56.1743 50.9971 55.8533 51.1445 55.4995C51.292 55.1458 51.3679 54.7664 51.3679 54.3832C51.3679 53.9999 51.292 53.6205 51.1445 53.2668C50.9971 52.913 50.781 52.592 50.5088 52.3223C50.2366 52.0525 49.9137 51.8393 49.5586 51.6951C49.2054 51.5515 48.8273 51.479 48.446 51.4817H48.3974C48.0161 51.479 47.638 51.5515 47.2847 51.6951ZM58.0547 51.4818V51.4817H58.0445H57.9915C57.6102 51.479 57.2321 51.5515 56.8789 51.6951C56.5238 51.8393 56.2009 52.0525 55.9287 52.3223C55.6565 52.592 55.4404 52.913 55.293 53.2668C55.1455 53.6205 55.0696 53.9999 55.0696 54.3832C55.0696 54.7664 55.1455 55.1458 55.293 55.4995C55.4404 55.8533 55.6565 56.1743 55.9287 56.444C56.2009 56.7138 56.5238 56.927 56.8789 57.0712C57.2321 57.2148 57.6102 57.2873 57.9915 57.2846L58.0445 57.2847L58.0547 57.2846C58.8196 57.2777 59.5509 56.969 60.0895 56.4256C60.628 55.8822 60.9301 55.1482 60.9301 54.3832C60.9301 53.6181 60.628 52.8841 60.0895 52.3407C59.5509 51.7973 58.8196 51.4886 58.0547 51.4818ZM47.8732 36.362H28.87H28.8689C27.7543 36.3632 26.6857 36.8064 25.8976 37.5946C25.1095 38.3827 24.6663 39.4513 24.6652 40.5659V40.567V58.2369H14.2462V43.196C14.2489 42.8147 14.1764 42.4366 14.0328 42.0834C13.8886 41.7283 13.6754 41.4054 13.4056 41.1332C13.1359 40.861 12.8149 40.6449 12.4612 40.4975C12.1074 40.35 11.728 40.2741 11.3448 40.2741C10.9615 40.2741 10.5821 40.35 10.2284 40.4975C9.87464 40.6449 9.55363 40.861 9.28388 41.1332C9.0141 41.4054 8.80093 41.7283 8.65667 42.0833C8.51312 42.4366 8.44063 42.8147 8.4433 43.196V58.2369H2.1466C1.87625 58.2351 1.61746 58.1269 1.42625 57.9357C1.23509 57.7446 1.1269 57.4859 1.125 57.2156V40.4572C1.13688 36.9835 2.52206 33.6554 4.97838 31.1991C7.43473 28.7428 10.7628 27.3576 14.2366 27.3457H35.4207C38.4209 27.3556 41.3277 28.3898 43.66 30.277C45.6248 31.8669 47.0826 33.9819 47.8732 36.362ZM31.5506 4.65963L31.5516 4.66068C32.4354 5.54214 33.1363 6.58957 33.6139 7.74276C34.0916 8.89595 34.3366 10.1322 34.335 11.3804V11.3819C34.335 13.5813 33.5723 15.7128 32.177 17.413C30.7817 19.1132 28.84 20.277 26.6828 20.7061C24.5256 21.1352 22.2863 20.803 20.3466 19.7662C18.4068 18.7293 16.8866 17.052 16.0449 15.0199C15.2032 12.9879 15.0921 10.7268 15.7306 8.62209C16.3691 6.51734 17.7177 4.69908 19.5465 3.47715C21.3753 2.25521 23.5712 1.70519 25.7601 1.92081C27.949 2.13643 29.9954 3.10434 31.5506 4.65963Z" stroke="black" stroke-width="2.25"/>
</svg>
