<svg width="15" height="14" viewBox="0 0 15 14" fill="none" xmlns="http://www.w3.org/2000/svg">
<path d="M7.80282 12.9675L7.37673 13.0814C7.04978 13.1683 6.70478 13.0425 6.51282 12.7664L4.68891 10.1653L7.75501 10.4922L8.33696 11.8783C8.52282 12.3283 8.27392 12.8414 7.80282 12.9675ZM1.88391 4.75029L0.893911 5.01724C0.251957 5.19115 -0.132184 5.85115 0.0419572 6.49334L0.668911 8.83334C0.840005 9.47529 1.50001 9.85639 2.14501 9.68225L3.13501 9.41834L1.88391 4.75029ZM11.7497 9.46404L9.32275 0.405207C9.24986 0.132629 8.92618 0.0184884 8.69837 0.184426L2.75274 4.51896L4.00313 9.18537L11.3194 9.96678C11.5997 9.99678 11.8228 9.73592 11.7497 9.46404ZM12.1179 1.96263C12.0495 1.96263 11.9808 1.94529 11.9175 1.90872C11.7253 1.79787 11.6597 1.55224 11.7706 1.36029L12.3511 0.355051C12.4617 0.162629 12.7081 0.097004 12.8995 0.208098C13.0917 0.318957 13.1574 0.564583 13.0465 0.756536L12.466 1.76177C12.3914 1.89068 12.2564 1.96263 12.1179 1.96263ZM12.6912 4.75849C12.5138 4.75849 12.3516 4.64013 12.3035 4.46084C12.2463 4.24662 12.3734 4.02654 12.5876 3.96888L13.7088 3.66865C13.9242 3.61146 14.1434 3.73802 14.201 3.95271C14.2582 4.16693 14.1312 4.38701 13.917 4.44466L12.7957 4.7449C12.7603 4.75427 12.7256 4.75849 12.6912 4.75849ZM14.5981 8.04701C14.5296 8.04701 14.461 8.02967 14.3977 7.9931L13.3924 7.41256C13.2003 7.3017 13.1346 7.05607 13.2455 6.86412C13.3563 6.6717 13.6024 6.60607 13.7939 6.71717L14.7992 7.29771C14.9913 7.40857 15.057 7.6542 14.9461 7.84615C14.8718 7.97506 14.7366 8.04701 14.5981 8.04701Z" fill="#1D2F6F"/>
</svg>
