<svg width="15" height="15" viewBox="0 0 15 15" fill="none" xmlns="http://www.w3.org/2000/svg">
<path d="M15.0001 10.1515C15.0001 8.29009 13.9323 6.62887 12.3329 5.8208C12.2833 9.38976 9.38976 12.2833 5.8208 12.3329C6.62887 13.9323 8.29009 15.0001 10.1515 15.0001C11.0242 15.0001 11.8729 14.7677 12.6186 14.326L14.9789 14.9789L14.326 12.6186C14.7677 11.8729 15.0001 11.0242 15.0001 10.1515Z" fill="#1D2F6F"/>
<path d="M11.4551 5.72754C11.4551 2.56931 8.88577 0 5.72754 0C2.56931 0 0 2.56931 0 5.72754C0 6.75682 0.273972 7.75898 0.79422 8.6388L0.0210571 11.4339L2.81628 10.6609C3.6961 11.1811 4.69826 11.4551 5.72754 11.4551C8.88577 11.4551 11.4551 8.88577 11.4551 5.72754ZM4.84863 4.39453H3.96973C3.96973 3.42522 4.75822 2.63672 5.72754 2.63672C6.69685 2.63672 7.48535 3.42522 7.48535 4.39453C7.48535 4.88651 7.27707 5.35938 6.91372 5.69172L6.16699 6.37516V7.06055H5.28809V5.98812L6.32034 5.0433C6.50482 4.8745 6.60645 4.64413 6.60645 4.39453C6.60645 3.90987 6.2122 3.51563 5.72754 3.51563C5.24288 3.51563 4.84863 3.90987 4.84863 4.39453ZM5.28809 7.93945H6.16699V8.81836H5.28809V7.93945Z" fill="#1D2F6F"/>
</svg>
