<svg width="16" height="16" viewBox="0 0 16 16" fill="none" xmlns="http://www.w3.org/2000/svg">
<path d="M8.1665 8.16675C10.2376 8.16675 11.9165 6.48781 11.9165 4.41675C11.9165 2.34568 10.2376 0.666748 8.1665 0.666748C6.09544 0.666748 4.4165 2.34568 4.4165 4.41675C4.4165 6.48781 6.09544 8.16675 8.1665 8.16675Z" fill="#1D2F6F"/>
<path d="M8.1665 8.16675H8.84833C12.6139 8.16675 15.6665 11.2193 15.6665 14.9849C15.6665 15.3615 15.3613 15.6667 14.9847 15.6667H1.34832C0.971761 15.6667 0.666504 15.3615 0.666504 14.9849C0.666504 11.2193 3.71911 8.16675 7.48468 8.16675H8.1665Z" fill="#1D2F6F"/>
<path fill-rule="evenodd" clip-rule="evenodd" d="M8.1665 7.41675C9.82333 7.41675 11.1665 6.0736 11.1665 4.41675C11.1665 2.75989 9.82333 1.41675 8.1665 1.41675C6.50965 1.41675 5.1665 2.75989 5.1665 4.41675C5.1665 6.0736 6.50965 7.41675 8.1665 7.41675ZM10.237 7.54387C11.2492 6.87232 11.9165 5.72248 11.9165 4.41675C11.9165 2.34568 10.2376 0.666748 8.1665 0.666748C6.09544 0.666748 4.4165 2.34568 4.4165 4.41675C4.4165 5.72248 5.08385 6.87232 6.09607 7.54387C6.50887 7.8177 6.97903 8.01202 7.48468 8.10495C7.70578 8.14552 7.93363 8.16675 8.1665 8.16675H7.48468C6.95975 8.16675 6.44873 8.22607 5.95786 8.33835C2.92738 9.03165 0.666504 11.7442 0.666504 14.9849C0.666504 15.3615 0.971761 15.6667 1.34832 15.6667H14.9847C15.3613 15.6667 15.6665 15.3615 15.6665 14.9849C15.6665 11.7442 13.4056 9.03165 10.3752 8.33835C9.8843 8.22607 9.37325 8.16675 8.84833 8.16675H8.1665C8.39938 8.16675 8.62723 8.14552 8.84833 8.10495C9.35398 8.01202 9.82415 7.8177 10.237 7.54387ZM8.84833 8.91675H7.48468C4.15608 8.91675 1.45343 11.5968 1.41688 14.9167H14.9161C14.8796 11.5968 12.1769 8.91675 8.84833 8.91675Z" fill="#1D2F6F"/>
</svg>
