<svg width="16" height="18" viewBox="0 0 16 18" fill="none" xmlns="http://www.w3.org/2000/svg">
<path d="M13.0295 10H11.1874C10.0247 10 9.08216 10.9426 9.08216 12.1053V12.3499C9.08216 12.9285 9.31988 13.4757 9.72983 13.869L8.7647 14.6963C8.29808 15.0962 8.02953 15.6801 8.02953 16.2947V16.3158H1.45058C0.869228 16.3158 0.397949 15.8445 0.397949 15.2632V1.05263C0.397949 0.471279 0.869228 0 1.45058 0H11.9769C12.5582 0 13.0295 0.471279 13.0295 1.05263V10ZM3.55584 3.68421H9.87163C10.1623 3.68421 10.3979 3.44857 10.3979 3.15789C10.3979 2.86722 10.1623 2.63158 9.87163 2.63158H3.55584C3.26517 2.63158 3.02953 2.86722 3.02953 3.15789C3.02953 3.44857 3.26517 3.68421 3.55584 3.68421ZM3.55584 6.31579H9.87163C10.1623 6.31579 10.3979 6.08015 10.3979 5.78947C10.3979 5.4988 10.1623 5.26316 9.87163 5.26316H3.55584C3.26517 5.26316 3.02953 5.4988 3.02953 5.78947C3.02953 6.08015 3.26517 6.31579 3.55584 6.31579ZM3.55584 8.94737H7.24005C7.53073 8.94737 7.76637 8.71173 7.76637 8.42105C7.76637 8.13038 7.53073 7.89474 7.24005 7.89474H3.55584C3.26517 7.89474 3.02953 8.13038 3.02953 8.42105C3.02953 8.71173 3.26517 8.94737 3.55584 8.94737ZM4.87163 14.2105C6.03434 14.2105 6.9769 13.268 6.9769 12.1053C6.9769 10.9426 6.03434 10 4.87163 10C3.70893 10 2.76637 10.9426 2.76637 12.1053C2.76637 13.268 3.70893 14.2105 4.87163 14.2105ZM4.87163 13.1579C4.29028 13.1579 3.819 12.6866 3.819 12.1053C3.819 11.5239 4.29028 11.0526 4.87163 11.0526C5.45299 11.0526 5.92427 11.5239 5.92427 12.1053C5.92427 12.6866 5.45299 13.1579 4.87163 13.1579ZM10.9243 13.6323C10.9243 13.5119 10.8641 13.3994 10.7639 13.3327L10.6035 13.2257C10.3107 13.0305 10.1348 12.7019 10.1348 12.3499V12.1053C10.1348 11.5239 10.6061 11.0526 11.1874 11.0526H13.2927C13.874 11.0526 14.3453 11.5239 14.3453 12.1053V12.3499C14.3453 12.7019 14.1694 13.0305 13.8766 13.2257L13.7162 13.3327C13.616 13.3994 13.5558 13.5119 13.5558 13.6323V14.2316L15.0304 15.4955C15.2637 15.6955 15.398 15.9874 15.398 16.2947V16.8421C15.398 17.4235 14.9267 17.8947 14.3453 17.8947H10.1348C9.55344 17.8947 9.08216 17.4235 9.08216 16.8421V16.2947C9.08216 15.9874 9.21644 15.6955 9.44975 15.4955L10.9243 14.2316V13.6323Z" fill="#1D2F6F"/>
</svg>
