<svg width="15" height="15" viewBox="0 0 15 15" fill="none" xmlns="http://www.w3.org/2000/svg">
<path d="M14.105 5.01789C13.8132 4.97551 13.5348 4.86786 13.2904 4.70295C13.046 4.53805 12.842 4.32013 12.6935 4.06544C12.545 3.81074 12.4559 3.52583 12.4328 3.23192C12.4097 2.93801 12.4532 2.64267 12.56 2.36789C12.6279 2.18826 12.6379 1.99187 12.5886 1.80626C12.5393 1.62065 12.4331 1.45512 12.285 1.33289C11.631 0.783726 10.8866 0.352316 10.085 0.0578945C9.90246 -0.00991396 9.70318 -0.0183861 9.51554 0.033685C9.32791 0.0857561 9.16149 0.195714 9.04 0.347894C8.85714 0.581721 8.62344 0.770837 8.35661 0.9009C8.08978 1.03096 7.79684 1.09856 7.50001 1.09856C7.20317 1.09856 6.91023 1.03096 6.6434 0.9009C6.37657 0.770837 6.14287 0.581721 5.96001 0.347894C5.83852 0.195714 5.6721 0.0857561 5.48446 0.033685C5.29683 -0.0183861 5.09755 -0.00991396 4.91501 0.0578945C4.17484 0.329715 3.4828 0.717932 2.86501 1.20789C2.70928 1.33118 2.59711 1.50108 2.54493 1.69272C2.49274 1.88436 2.50329 2.08768 2.57501 2.27289C2.69039 2.55494 2.73806 2.8601 2.71419 3.16389C2.69033 3.46769 2.59561 3.76166 2.43761 4.02223C2.27961 4.28281 2.06275 4.50272 1.80441 4.66434C1.54607 4.82596 1.25344 4.92479 0.95001 4.95289C0.753014 4.97395 0.567986 5.05771 0.422166 5.19183C0.276346 5.32595 0.177441 5.50334 0.140011 5.69789C0.0469096 6.15874 1.08202e-05 6.62773 1.08202e-05 7.09789C-0.000673476 7.4915 0.0311009 7.8845 0.0950108 8.27289C0.126818 8.47367 0.223884 8.65839 0.371201 8.79848C0.518517 8.93856 0.70788 9.02622 0.91001 9.04789C1.22011 9.07699 1.51872 9.17994 1.78086 9.34814C2.043 9.51634 2.26104 9.74488 2.41672 10.0146C2.57241 10.2844 2.66121 10.5875 2.6757 10.8986C2.69019 11.2098 2.62995 11.5198 2.50001 11.8029C2.41497 11.987 2.39388 12.1943 2.44008 12.3917C2.48628 12.5892 2.59712 12.7656 2.75501 12.8929C3.40507 13.4321 4.14229 13.8565 4.93501 14.1479C5.03638 14.183 5.14274 14.2016 5.25001 14.2029C5.39709 14.2026 5.54196 14.167 5.67245 14.0991C5.80295 14.0313 5.91527 13.9331 6.00001 13.8129C6.17821 13.5532 6.4171 13.341 6.69592 13.1946C6.97475 13.0483 7.28509 12.9721 7.60001 12.9729C7.90513 12.9733 8.20595 13.0449 8.47852 13.182C8.75108 13.3192 8.98786 13.5181 9.17 13.7629C9.29116 13.9257 9.46277 14.044 9.65811 14.0991C9.85345 14.1543 10.0616 14.1433 10.25 14.0679C10.9748 13.7762 11.6497 13.373 12.25 12.8729C12.4008 12.7482 12.5082 12.5789 12.5567 12.3893C12.6052 12.1998 12.5924 11.9997 12.52 11.8179C12.4024 11.5395 12.3511 11.2375 12.3702 10.9359C12.3893 10.6343 12.4783 10.3412 12.63 10.0799C12.7818 9.81852 12.9922 9.59602 13.2447 9.42994C13.4973 9.26386 13.7849 9.15874 14.085 9.12289C14.2796 9.09598 14.4606 9.00782 14.6017 8.87118C14.7428 8.73454 14.8368 8.55651 14.87 8.36289C14.9503 7.94584 14.9938 7.52255 15 7.09789C15.0001 6.64996 14.9582 6.20301 14.875 5.76289C14.8412 5.57354 14.7487 5.39964 14.6104 5.2659C14.4722 5.13216 14.2954 5.04538 14.105 5.01789ZM10 7.09789C10 7.59234 9.85338 8.07569 9.57868 8.48681C9.30397 8.89794 8.91353 9.21837 8.45671 9.40759C7.9999 9.59681 7.49723 9.64631 7.01228 9.54985C6.52733 9.45339 6.08187 9.21529 5.73224 8.86565C5.38261 8.51602 5.14451 8.07057 5.04804 7.58562C4.95158 7.10066 5.00109 6.598 5.19031 6.14118C5.37953 5.68437 5.69996 5.29392 6.11108 5.01922C6.5222 4.74451 7.00555 4.59789 7.50001 4.59789C8.16305 4.59789 8.79893 4.86128 9.26777 5.33012C9.73661 5.79896 10 6.43485 10 7.09789Z" fill="#1D2F6F"/>
</svg>
