<svg width="16" height="17" viewBox="0 0 16 17" fill="none" xmlns="http://www.w3.org/2000/svg">
<path d="M10.3214 7.10714C7.60343 7.10714 5.39286 9.31857 5.39286 12.0357C5.39286 14.7529 7.60343 16.9643 10.3214 16.9643C13.0394 16.9643 15.25 14.7529 15.25 12.0357C15.25 9.31857 13.0394 7.10714 10.3214 7.10714ZM11.9971 12.6786H10.3214C9.96657 12.6786 9.67857 12.3906 9.67857 12.0357V10.2914C9.67857 9.93657 9.96657 9.64857 10.3214 9.64857C10.6763 9.64857 10.9643 9.93657 10.9643 10.2914V11.3929H11.9971C12.352 11.3929 12.64 11.6809 12.64 12.0357C12.64 12.3906 12.352 12.6786 11.9971 12.6786ZM11.1786 0.25H2.60714C1.30429 0.25 0.25 1.30429 0.25 2.60714V13.75C0.25 15.0529 1.30429 16.1071 2.60714 16.1071H5.64143C4.68143 15.0186 4.10714 13.5957 4.10714 12.0357C4.10714 8.60714 6.89286 5.82143 10.3214 5.82143C11.5043 5.82143 12.6014 6.14714 13.5357 6.73V2.60714C13.5357 1.30429 12.4814 0.25 11.1786 0.25ZM4.32143 9.25H3.46429C3.11286 9.25 2.82143 8.95857 2.82143 8.60714C2.82143 8.25571 3.11286 7.96429 3.46429 7.96429H4.32143C4.67286 7.96429 4.96429 8.25571 4.96429 8.60714C4.96429 8.95857 4.67286 9.25 4.32143 9.25ZM6.89286 6.67857H3.46429C3.11286 6.67857 2.82143 6.38714 2.82143 6.03571C2.82143 5.68429 3.11286 5.39286 3.46429 5.39286H6.89286C7.24429 5.39286 7.53571 5.68429 7.53571 6.03571C7.53571 6.38714 7.24429 6.67857 6.89286 6.67857ZM10.3214 4.10714H3.46429C3.11286 4.10714 2.82143 3.81571 2.82143 3.46429C2.82143 3.11286 3.11286 2.82143 3.46429 2.82143H10.3214C10.6729 2.82143 10.9643 3.11286 10.9643 3.46429C10.9643 3.81571 10.6729 4.10714 10.3214 4.10714Z" fill="#1D2F6F"/>
</svg>
