<svg width="16" height="16" viewBox="0 0 16 16" fill="none" xmlns="http://www.w3.org/2000/svg">
<path d="M13.7479 0.666504H2.58511C2.3331 0.666321 2.08353 0.715822 1.85067 0.812176C1.61782 0.90853 1.40624 1.04985 1.22804 1.22804C1.04985 1.40624 0.90853 1.61782 0.812176 1.85067C0.715822 2.08353 0.666321 2.3331 0.666504 2.58511V7.46883C0.666321 7.72084 0.715822 7.97041 0.812176 8.20327C0.90853 8.43612 1.04985 8.6477 1.22804 8.8259C1.40624 9.00409 1.61782 9.14541 1.85067 9.24176C2.08353 9.33812 2.3331 9.38762 2.58511 9.38743H7.64325V8.34092H2.58511C2.35382 8.34092 2.132 8.24904 1.96845 8.08549C1.8049 7.92194 1.71302 7.70012 1.71302 7.46883V2.58511C1.71302 2.35382 1.8049 2.132 1.96845 1.96845C2.132 1.8049 2.35382 1.71302 2.58511 1.71302H13.7479C13.9792 1.71302 14.201 1.8049 14.3646 1.96845C14.5281 2.132 14.62 2.35382 14.62 2.58511V7.46883C14.62 7.70012 14.5281 7.92194 14.3646 8.08549C14.201 8.24904 13.9792 8.34092 13.7479 8.34092H8.68976V9.38743H13.7479C13.9999 9.38762 14.2495 9.33812 14.4823 9.24176C14.7152 9.14541 14.9268 9.00409 15.105 8.8259C15.2832 8.6477 15.4245 8.43612 15.5208 8.20327C15.6172 7.97041 15.6667 7.72084 15.6665 7.46883V2.58511C15.6667 2.3331 15.6172 2.08353 15.5208 1.85067C15.4245 1.61782 15.2832 1.40624 15.105 1.22804C14.9268 1.04985 14.7152 0.90853 14.4823 0.812176C14.2495 0.715822 13.9999 0.666321 13.7479 0.666504Z" fill="#1D2F6F"/>
<path d="M12.7014 4.15479H3.63165C3.49316 4.1557 3.3606 4.21112 3.26267 4.30905C3.16474 4.40699 3.10931 4.53955 3.1084 4.67804V13.7478C3.10822 13.9998 3.15772 14.2494 3.25407 14.4822C3.35042 14.7151 3.49174 14.9267 3.66994 15.1049C3.84813 15.2831 4.05971 15.4244 4.29257 15.5207C4.52543 15.6171 4.775 15.6666 5.027 15.6664H11.3061C11.5581 15.6666 11.8076 15.6171 12.0405 15.5207C12.2734 15.4244 12.4849 15.2831 12.6631 15.1049C12.8413 14.9267 12.9827 14.7151 13.079 14.4822C13.1754 14.2494 13.2249 13.9998 13.2247 13.7478V4.67804C13.2238 4.53955 13.1683 4.40699 13.0704 4.30905C12.9725 4.21112 12.8399 4.1557 12.7014 4.15479ZM8.68979 11.0897L9.88979 9.88967C9.98899 9.79724 10.1202 9.74692 10.2557 9.74931C10.3913 9.75171 10.5206 9.80662 10.6165 9.90249C10.7124 9.99836 10.7673 10.1277 10.7697 10.2633C10.7721 10.3988 10.7218 10.53 10.6293 10.6292L8.53631 12.7222C8.48796 12.7696 8.43116 12.8074 8.36886 12.8339C8.30498 12.8615 8.23613 12.8757 8.16654 12.8757C8.09695 12.8757 8.02809 12.8615 7.96421 12.8339C7.90191 12.8074 7.84512 12.7696 7.79677 12.7222L5.70375 10.6292C5.61132 10.53 5.561 10.3988 5.56339 10.2633C5.56578 10.1277 5.6207 9.99836 5.71657 9.90249C5.81244 9.80662 5.94178 9.75171 6.07734 9.74931C6.2129 9.74692 6.34409 9.79724 6.44328 9.88967L7.64328 11.0897V7.46874C7.64328 7.32996 7.69841 7.19687 7.79654 7.09874C7.89467 7.00061 8.02776 6.94548 8.16654 6.94548C8.30531 6.94548 8.43841 7.00061 8.53654 7.09874C8.63467 7.19687 8.68979 7.32996 8.68979 7.46874V11.0897Z" fill="#1D2F6F"/>
<path d="M13.399 5.2013H2.9339C2.79512 5.2013 2.66203 5.14617 2.5639 5.04804C2.46577 4.94991 2.41064 4.81682 2.41064 4.67804C2.41064 4.53926 2.46577 4.40617 2.5639 4.30804C2.66203 4.20991 2.79512 4.15479 2.9339 4.15479H13.399C13.5378 4.15479 13.6709 4.20991 13.769 4.30804C13.8671 4.40617 13.9223 4.53926 13.9223 4.67804C13.9223 4.81682 13.8671 4.94991 13.769 5.04804C13.6709 5.14617 13.5378 5.2013 13.399 5.2013Z" fill="#1D2F6F"/>
</svg>
