<svg width="15" height="14" viewBox="0 0 15 14" fill="none" xmlns="http://www.w3.org/2000/svg">
<path fill-rule="evenodd" clip-rule="evenodd" d="M12 0H3C1.35 0 0 1.35 0 3C0 4.275 0.75 5.325 1.875 5.775V3C1.875 2.7 2.025 2.4 2.175 2.175C2.325 1.95 2.7 1.875 3 1.875H12C12.3 1.875 12.6 2.025 12.825 2.175C13.05 2.325 13.125 2.7 13.125 3V5.775C14.25 5.325 15 4.275 15 3C15 1.35 13.65 0 12 0ZM12 12V3H3V12C3 12.825 3.675 13.5 4.5 13.5H10.5C11.325 13.5 12 12.825 12 12ZM6.9 7.05L6.375 7.575C6.15 7.8 5.775 7.8 5.55 7.575C5.325 7.35 5.325 6.975 5.55 6.75L6.525 5.775C7.05 5.25 7.875 5.25 8.4 5.775L9.375 6.75C9.6 6.975 9.6 7.35 9.375 7.575C9.15 7.8 8.775 7.8 8.55 7.575L8.025 7.05V10.2C8.025 10.5 7.8 10.8 7.425 10.8C7.05 10.8 6.825 10.575 6.825 10.2V7.05H6.9Z" fill="#1D2F6F"/>
</svg>
