<svg width="15" height="16" viewBox="0 0 15 16" fill="none" xmlns="http://www.w3.org/2000/svg">
<path d="M3.84229 6.73138H4.99613L9.94036 3.87561C9.97329 3.85653 10.0097 3.84416 10.0474 3.83921C10.0851 3.83425 10.1234 3.83681 10.1602 3.84673C10.1969 3.85665 10.2313 3.87374 10.2614 3.89701C10.2915 3.92028 10.3167 3.94928 10.3356 3.98234C10.3923 4.08088 10.468 4.16726 10.5582 4.23654C10.6483 4.30583 10.7513 4.35666 10.8611 4.38613C10.971 4.4156 11.0855 4.42313 11.1983 4.40829C11.311 4.39345 11.4198 4.35653 11.5182 4.29965C11.5512 4.28057 11.5875 4.2682 11.6253 4.26325C11.663 4.25829 11.7013 4.26084 11.7381 4.27076C11.7748 4.28069 11.8092 4.29777 11.8393 4.32105C11.8694 4.34432 11.8946 4.37332 11.9134 4.40638L13.2519 6.73138H13.9154L11.8269 3.11695C11.7118 2.91921 11.523 2.77512 11.3019 2.7162C11.0808 2.65728 10.8454 2.68832 10.6471 2.80253L3.84229 6.73138Z" fill="#1D2F6F"/>
<path d="M10.0009 4.50732L6.1499 6.73136H12.5826C12.6114 6.73136 12.5826 6.73136 11.5384 4.91982C11.2699 5.00953 10.9809 5.01825 10.7076 4.9449C10.4342 4.87155 10.1884 4.71937 10.0009 4.50732Z" fill="#1D2F6F"/>
<path d="M4.93274 2.2747C4.95158 2.24164 4.97678 2.21265 5.00688 2.18937C5.03698 2.1661 5.07139 2.14901 5.10812 2.13909C5.14485 2.12917 5.18319 2.12661 5.22091 2.13157C5.25864 2.13652 5.29501 2.1489 5.32793 2.16797C5.42653 2.22531 5.53549 2.26259 5.64854 2.27767C5.7616 2.29275 5.87652 2.28533 5.9867 2.25584C6.09688 2.22635 6.20014 2.17537 6.29055 2.10584C6.38096 2.0363 6.45673 1.94958 6.51351 1.85066C6.55156 1.78468 6.61417 1.73643 6.68766 1.71643C6.76116 1.69644 6.83958 1.70632 6.90581 1.74393L9.11255 3.02181C9.14428 3.02181 9.01447 3.07951 9.68947 2.6872C5.83851 0.466045 5.99428 0.463161 5.53562 0.58143C5.07697 0.699699 5.24716 0.58143 1.69043 6.73143H2.35678L4.93274 2.2747Z" fill="#1D2F6F"/>
<path d="M5.30499 2.78819L3.19922 6.443L8.53864 3.35357L6.84249 2.3728C6.6553 2.58535 6.40969 2.73808 6.13627 2.81195C5.86285 2.88582 5.57374 2.87755 5.30499 2.78819Z" fill="#1D2F6F"/>
<path d="M14.3654 7.34294C14.3106 7.28813 12.0173 7.30832 0.865385 7.30832C0.63587 7.30832 0.415756 7.3995 0.253465 7.56179C0.0911742 7.72408 0 7.94419 0 8.17371V14.5199C0 14.7494 0.0911742 14.9695 0.253465 15.1318C0.415756 15.2941 0.63587 15.3852 0.865385 15.3852H14.1346C14.3641 15.3852 14.5842 15.2941 14.7465 15.1318C14.9088 14.9695 15 14.7494 15 14.5199V8.17371C14.9993 7.98497 14.9369 7.80165 14.8223 7.65166C14.7077 7.50168 14.5473 7.39327 14.3654 7.34294ZM14.4231 13.366C14.4231 13.4425 14.3927 13.5159 14.3386 13.57C14.2845 13.6241 14.2111 13.6545 14.1346 13.6545C13.9051 13.6545 13.685 13.7456 13.5227 13.9079C13.3604 14.0702 13.2692 14.2903 13.2692 14.5199C13.2692 14.5964 13.2388 14.6697 13.1847 14.7238C13.1306 14.7779 13.0573 14.8083 12.9808 14.8083H2.01923C1.94273 14.8083 1.86935 14.7779 1.81526 14.7238C1.76116 14.6697 1.73077 14.5964 1.73077 14.5199C1.73077 14.2903 1.6396 14.0702 1.4773 13.9079C1.31501 13.7456 1.0949 13.6545 0.865385 13.6545C0.78888 13.6545 0.715509 13.6241 0.661412 13.57C0.607315 13.5159 0.576923 13.4425 0.576923 13.366V9.32755C0.576923 9.25105 0.607315 9.17768 0.661412 9.12358C0.715509 9.06948 0.78888 9.03909 0.865385 9.03909C1.0949 9.03909 1.31501 8.94792 1.4773 8.78563C1.6396 8.62333 1.73077 8.40322 1.73077 8.17371C1.73077 8.0972 1.76116 8.02383 1.81526 7.96973C1.86935 7.91564 1.94273 7.88524 2.01923 7.88524H12.9808C13.0573 7.88524 13.1306 7.91564 13.1847 7.96973C13.2388 8.02383 13.2692 8.0972 13.2692 8.17371C13.2692 8.40322 13.3604 8.62333 13.5227 8.78563C13.685 8.94792 13.9051 9.03909 14.1346 9.03909C14.2111 9.03909 14.2845 9.06948 14.3386 9.12358C14.3927 9.17768 14.4231 9.25105 14.4231 9.32755V13.366Z" fill="#1D2F6F"/>
<path d="M12.7211 8.46216H2.27881C2.22228 8.73934 2.08549 8.99378 1.88546 9.19381C1.68543 9.39384 1.43099 9.53063 1.15381 9.58716V13.1064C1.43099 13.1629 1.68543 13.2997 1.88546 13.4997C2.08549 13.6998 2.22228 13.9542 2.27881 14.2314H12.7211C12.7776 13.9542 12.9144 13.6998 13.1145 13.4997C13.3145 13.2997 13.5689 13.1629 13.8461 13.1064V9.58716C13.5689 9.53063 13.3145 9.39384 13.1145 9.19381C12.9144 8.99378 12.7776 8.73934 12.7211 8.46216ZM7.49996 13.6545C6.3865 13.6545 5.48073 12.6189 5.48073 11.3468C5.48073 10.0747 6.3865 9.03908 7.49996 9.03908C8.61342 9.03908 9.51919 10.0747 9.51919 11.3468C9.51919 12.6189 8.61342 13.6545 7.49996 13.6545Z" fill="#1D2F6F"/>
<path d="M7.49992 13.0775C8.29649 13.0775 8.94223 12.3026 8.94223 11.3467C8.94223 10.3909 8.29649 9.61597 7.49992 9.61597C6.70336 9.61597 6.05762 10.3909 6.05762 11.3467C6.05762 12.3026 6.70336 13.0775 7.49992 13.0775Z" fill="#1D2F6F"/>
</svg>
